<svg xmlns="http://www.w3.org/2000/svg" xmlns:xlink="http://www.w3.org/1999/xlink" viewBox="0 0 1000 1000">
    <defs>
        <clipPath id="a" transform="translate(0)">
            <path
                d="M753.55,247.8c-110.21,30.91-262.77,12.1-262.77,12.1H488.3S202.68,561.64,249.72,630.19C271.83,662.38,487.63,819,487.63,819h3.83ZM478.82,563.32l-.13,106-.2,66.07-.34,63.44h0c-42.07-25.21-194.76-156.32-212.37-182-14.38-20.9-21.43-69-24.52-122.92h0l29.5,8.27,29.77,8.46,59.54,17.14,59.41,17.48,29.7,8.8,28.3,8.6.6.2h0l.61.2v.27Zm.07-22.51-.67-.2h0l-.68-.2L449,532.81l-29.9-8.13L359.4,508.22l-59.61-16.81L270,482.88l-29.71-8.6h0c-3.89-97.31,3.3-205,3.3-205,82,23,199.66,10.55,234.54,6.11h0l.34,63.64.2,66.06.13,132.13ZM737.76,493.9c-3.09,53.9-10.22,102-24.53,122.92-17.61,25.6-170.3,156.78-212.37,181.92h0l-.33-63.44-.2-66.06-.14-106V563l.61-.2h0l.6-.21,28.29-8.6,29.71-8.8,59.41-17.48,59.54-17.13,29.77-8.47,29.64-8.2Zm.94-19.56L709,483l-29.77,8.53-59.61,16.8-59.67,16.47-29.84,8.13-28.56,7.66-.68.2h0l-.67.2v-3.63l.14-132.12.2-66.06.33-63.64h0c34.88,4.43,152.56,16.87,234.55-6.12C735.41,269.31,742.66,377,738.7,474.34Z"
                style="fill:none" />
        </clipPath>
    </defs>
    <path
        d="M753.55,247.8c-110.21,30.91-262.77,12.1-262.77,12.1H488.3S202.68,561.64,249.72,630.19C271.83,662.38,487.63,819,487.63,819h3.83ZM478.82,563.32l-.13,106-.2,66.07-.34,63.44h0c-42.07-25.21-194.76-156.32-212.37-182-14.38-20.9-21.43-69-24.52-122.92h0l29.5,8.27,29.77,8.46,59.54,17.14,59.41,17.48,29.7,8.8,28.3,8.6.6.2h0l.61.2v.27Zm.07-22.51-.67-.2h0l-.68-.2L449,532.81l-29.9-8.13L359.4,508.22l-59.61-16.81L270,482.88l-29.71-8.6h0c-3.89-97.31,3.3-205,3.3-205,82,23,199.66,10.55,234.54,6.11h0l.34,63.64.2,66.06.13,132.13ZM737.76,493.9c-3.09,53.9-10.22,102-24.53,122.92-17.61,25.6-170.3,156.78-212.37,181.92h0l-.33-63.44-.2-66.06-.14-106V563l.61-.2h0l.6-.21,28.29-8.6,29.71-8.8,59.41-17.48,59.54-17.13,29.77-8.47,29.64-8.2Zm.94-19.56L709,483l-29.77,8.53-59.61,16.8-59.67,16.47-29.84,8.13-28.56,7.66-.68.2h0l-.67.2v-3.63l.14-132.12.2-66.06.33-63.64h0c34.88,4.43,152.56,16.87,234.55-6.12C735.41,269.31,742.66,377,738.7,474.34Z"
        transform="translate(0)" style="fill:#1DB954;opacity:0.8" />
    <path
        d="M586.21,392.56c14-5.78,30.85.47,45.37-8.13-8.74,4.36-19.22,3.36-30.25,3.15,6.86-3.69,14-8.73,22.85-10.48-11.56,1.48-20.09,8.94-38.3,12l.6-.2a2,2,0,0,1-.54.14h0c-.13.06-.2.06-.26.13a.24.24,0,0,0-.14.07c-.07,0-.13.06-.2.06s-.27.07-.34.14h0c-.06,0-.06,0-.13.07a.24.24,0,0,0-.14.06c-.06,0-.06.07-.13.07s-.07,0-.13.07a3.71,3.71,0,0,0-.61.27c-.07,0-.07,0-.13.06h-.2c16.26-11.42,33.66-26,55.3-26.61,0,0-.4-.07-1.21-.13-5.78-.27-12.5,1.61-19.28,3.42,3-.94,5.57-3.76,8.67-6-3.63,2.29-8,4.57-12.77,7.06-10.69,3.09-20.77,10.55-30.85,17.54,8.6-19.83,28.9-15.93,27.49-22.92-.81,4.77-19,6.32-22.31,11.7,2.35-8.27.33-18.28,17.74-18.42-20,.14-13.31,4.91-23,23.79,1.07-2.95-.07-6.85-3-10.28C586,361,592.73,350.35,603,348.34c-5.78-.47-18.15,9.88-23.19,17.81a7.81,7.81,0,0,1,1.08-3.43c-.41.54-1,1.14-1.48,3.83-2.22,2.82-6,5.44-9.48,8.06,7.26-24,10.22-47.44,35.35-54.5-19,3.7-26.81,17.47-33.53,34.07-1.15-7.66.2-19.69-.61-28.36-1.68,15.73.81,33.47-7,48.66-2.21-7.33-.6-15.66-1.81-24.33-1.08,15,3.49,32.39-10.08,44.69-2.35-9.41,3.22-15,3.83-23.92-.94,5.37-5.92,6.38-6.72,26.95a73.15,73.15,0,0,1-15.19,11.42,20.27,20.27,0,0,0,2.08-10.21c8.27-10.35.14-29,7.66-40.59-6.58,5.24-3.29,28.89-8.33,36-4.7-15.53-4.57-35.15,7.13-48.46-13.65,14.32-14.45,32.13-10.76,51.21a12.25,12.25,0,0,1-1-2.22c-2.95-14.11-9.67-9.07-7.32-32.32-1,4.77-2.55,10-1.82,15.46-4.57-5.78-9.14-14.92-10.48-22.85.61,10.41,7.26,21.77,13.58,31.18a24.35,24.35,0,0,0-8.34-4.37,7.33,7.33,0,0,1,1.48-1.95c-.54.34-.54.14-1.68,1.88a29.41,29.41,0,0,1-4.77-1.07,60.63,60.63,0,0,0,5.78-5.92,64.5,64.5,0,0,1-6.45,5.72,11.63,11.63,0,0,1-1.82-.74c2.22-9.75-.67-21.1,4-31.39a52.06,52.06,0,0,0-4.78,23.39c-2.21-4-4-9.07-6-14.05-.34-.73-.61-1.47-.95-2.21v2.28c.34.88.61,1.82.95,2.69,1.68,5.11,3.42,10.48,5.3,15.66-.13.6-.2.94-.67,2.55a24.59,24.59,0,0,1-4.63-3.76l-.81-.81c-.87-.94-1.75-1.88-2.55-2.89-.54-.67-1-1.34-1.48-2,.47.74.94,1.48,1.48,2.28a32.22,32.22,0,0,0,2.55,3.43c.27.33.54.6.81.94a25.38,25.38,0,0,0,4.36,3.9c-.74,2.28-1.68,4.57-2.68,6.85a15.91,15.91,0,0,0-1.68-5.78c-.07-.13-.14-.33-.21-.47.07.27.14.54.21.88a20.77,20.77,0,0,1,0,8.6,20.41,20.41,0,0,1-.74,2.55v12a8.68,8.68,0,0,1,.67-.94c1.68-2.28,4.57-5.17,10.48-10.82.94.47,2.15-3.36,8.07-4.43-1.89.13-5.72,1.27-7.73,3.89,1.34-2,2.28-5.17,3-8.46,3.77,1.07,7.19,4.3,10.69,7.25-.2,5.45,7.59,11.16,2.75,16.87-5,8.47-17.07,10.82-27.28,12.64a2,2,0,0,0-.61.13v12.57c.21-.07.41-.07.61-.14a129.55,129.55,0,0,0,20.63-7.12h0c1.75-.07,3.56-.27,5.51-.54,8.33-.6,11.09,4.17,15.26,9a.07.07,0,0,0-.07-.07c.13.13.27.2.4.34-.07,0-.07,0-.13-.07a24.78,24.78,0,0,0,14.58,8.8c-3.76-1-8.27-2.55-11.09-7.26,2.76,1.08,3.63.95,8.94.54-.67-1.07-8.47,3.9-15.66-8.73,5.85,2.68,14,3.83,20.77,7.32-.67.94-2.82,2.35-4.24,3.83,1.35-1.34,1.68-.8,4.78-3.69a16.09,16.09,0,0,0,3,.13h0a10.91,10.91,0,0,1-2.82-.34c.4,0,.13-1.41,3.83-3.89-.41.47.13.33-1,4.16H565c.54-1.21,1.08-2.75,2.09-5h0c.2-.54.67.27,2.08-3,.87,1.61,1.75,5.37,6.12,4.57,3.83,1.27,4.23,6.92,9.2,7.59-4.9-1.21-2.48-3.36-7.86-7.73,2.35-.47,4.44.74,10.42,3-6.52-5.85-17.48.94-17.54-14.52,9.74,2.56,19.49,8.67,30.91,7.93-9.27.14-19.42-6.11-28.56-9.61,11.09,1.48,21.37,1.88,34,4.24,10.49,2.82,5.92,5,15.06,1.81-7.53,1.28-15.12-4.23-23.39-5.38a114.11,114.11,0,0,0,16.26-5.44c-9.4,3-21.37,6.59-32.79,3.16,13.78-1.75,17.14-.14,25.4-11.56-10.82,13.37-33.06,9.48-49.06,8.27a108.66,108.66,0,0,0,10.76-7.67A112.8,112.8,0,0,0,592,396.66c3.63-3,3.7-7.26,12.57-4.77-10.42-4-6.32,3.09-23.86,7.86C581.91,398.47,582.05,398.47,586.21,392.56Zm-77.55-11.29c.27.2,0,0,.94.47L508.19,383C508.32,382.41,508.53,381.8,508.66,381.27Zm-.4,14.18c2.28-2.42,3.63-6.92,4.43-11a28.23,28.23,0,0,1-10.68,16l-.14.13c.07-.13.07-.27.14-.4.8-2.22,1.68-4.5,2.48-6.72.74-1.95,2-5.24,3-8.4a32.21,32.21,0,0,1,2.82-2.89,23.24,23.24,0,0,0,5.17,1.61C514.37,387.52,512.62,392.36,508.26,395.45Zm55.44,22.91c.74.27,1.41.68,3.83,1.62a21,21,0,0,0,.94,6.25c-1.34,4-3.49,3.22-7.19,9-5.85-3.63-14.18-5.64-20.9-9.14,7.59,3.43,14.65-3.29,22.85-1-6.59-4-6.32,3.7-26.88-1.54C544.41,420,553.42,417,563.7,418.36Zm5.44-21a3.52,3.52,0,0,1-.6.47l-.14.13a1.35,1.35,0,0,1-.33.21c-.47.33-1.08.8-2.22,1.68h0a95.9,95.9,0,0,1-18.14,10.55c22.84-21.71,11.29-23.66,32-40.8,2.82,4.57,3.63,5.78.94,13.31h0C576.74,387.65,575.33,393.57,569.14,397.33Zm3.36,4.9c1.68-1.54,4-3.69,6.39-6.11l.2-.2h0c.07,0,.07,0,.13-.07h.27c.07,0,.07-.07.14-.07a26.9,26.9,0,0,0,4.16-1.95c.34-.2.68-.33,2-.94C582.85,396.59,578.48,401.23,572.5,402.23ZM290.65,490.54l-.47-.13a29.56,29.56,0,0,0,5.17,3l.34-.47A24.54,24.54,0,0,1,290.65,490.54Zm0,0-.47-.13a29.56,29.56,0,0,0,5.17,3l.34-.47A24.54,24.54,0,0,1,290.65,490.54Zm158.2,238.91c-22.72-29.9-35.62-25.94-56.65-27.82a97.84,97.84,0,0,1-16.4-2.82c-9.07-2.42-19.56-6.72-32.39-14.59a83.18,83.18,0,0,0-12.84-6.58c51.21,45.49,118.21,100.6,146,118.14l.33-60.41v-.21C464.64,735.5,456.38,733.21,448.85,729.45Zm0,0c-22.72-29.9-35.62-25.94-56.65-27.82a97.84,97.84,0,0,1-16.4-2.82c-9.07-2.42-19.56-6.72-32.39-14.59a83.18,83.18,0,0,0-12.84-6.58c51.21,45.49,118.21,100.6,146,118.14l.33-60.41v-.21C464.64,735.5,456.38,733.21,448.85,729.45Zm0,0c-22.72-29.9-35.62-25.94-56.65-27.82a97.84,97.84,0,0,1-16.4-2.82c-9.07-2.42-19.56-6.72-32.39-14.59a83.18,83.18,0,0,0-12.84-6.58c51.21,45.49,118.21,100.6,146,118.14l.33-60.41v-.21C464.64,735.5,456.38,733.21,448.85,729.45Zm0,0c-22.72-29.9-35.62-25.94-56.65-27.82a97.84,97.84,0,0,1-16.4-2.82c-9.07-2.42-19.56-6.72-32.39-14.59a83.18,83.18,0,0,0-12.84-6.58c51.21,45.49,118.21,100.6,146,118.14l.33-60.41v-.21C464.64,735.5,456.38,733.21,448.85,729.45Zm0,0c-22.72-29.9-35.62-25.94-56.65-27.82a97.84,97.84,0,0,1-16.4-2.82c-9.07-2.42-19.56-6.72-32.39-14.59a83.18,83.18,0,0,0-12.84-6.58c51.21,45.49,118.21,100.6,146,118.14l.33-60.41v-.21C464.64,735.5,456.38,733.21,448.85,729.45Zm0,0c-22.72-29.9-35.62-25.94-56.65-27.82a97.84,97.84,0,0,1-16.4-2.82c-9.07-2.42-19.56-6.72-32.39-14.59a83.18,83.18,0,0,0-12.84-6.58c51.21,45.49,118.21,100.6,146,118.14l.33-60.41v-.21C464.64,735.5,456.38,733.21,448.85,729.45Zm0,0c-22.72-29.9-35.62-25.94-56.65-27.82a97.84,97.84,0,0,1-16.4-2.82c-9.07-2.42-19.56-6.72-32.39-14.59a83.18,83.18,0,0,0-12.84-6.58c51.21,45.49,118.21,100.6,146,118.14l.33-60.41v-.21C464.64,735.5,456.38,733.21,448.85,729.45Zm28.69-163.91a36,36,0,0,0,2.83-3.9c.06-.13.2-.27.27-.4-.07.13-.21.27-.27.4a17.65,17.65,0,0,1-2.83,3.09c-.13.14-.26.21-.4.34-3.69,3-8,3.29-16.6,3.16,2-1.88,4.3-4.37,6.66-7.06l1-1.21c.47-.53.94-1.07,1.41-1.54l-1.34-.41c-.54.54-1.07,1-1.61,1.55l-1.15,1.14c-.94,1-1.88,1.95-2.62,2.89.27-1.34-1.07-2.82-2.35-4.37a15.47,15.47,0,0,1-1.28-1.68,5.24,5.24,0,0,1-.94-2.48l-.33-.14a6.53,6.53,0,0,0,.87,2.49c.27.54.61,1,.94,1.54a14.14,14.14,0,0,1,2.09,4.91c-7.13,3.76-15.86-.4-24.4,2.08,3.56-2.75,7-6.65,10.42-10.61.27-.27.47-.54.74-.81.53-.67,1.14-1.28,1.68-1.95l-.68-.2c-.67.6-1.34,1.21-2,1.88a11.52,11.52,0,0,1-.87.81c-4.31,4-8.74,8.26-13.45,12-.33-3.7,2-9.21-1-13.18,6.25,21.44-19.22,32.73-36.63,39,18.62-38.71,16.67-3.22,36.16-32.93-6.19,4.44-6.39,14.18-17.88,10.76,15.32-12.57,11.49-16.81,12.63-21.64.07-.27.14-.47.21-.74a7.65,7.65,0,0,1,1.34-2.36l-1.14-.33-.27.27c0-.14.07-.2.07-.34l-.68-.2a17.49,17.49,0,0,1-.2,2.69,3.19,3.19,0,0,1-.13.74c-1.35,8.73-7.26,16.8-16.53,21.17,3.83-3.63,6.11-15.12,5-24.6,0-.2-.07-.47-.07-.67-.13-.88-.27-1.75-.47-2.56.14.81.2,1.62.27,2.49a2.42,2.42,0,0,0,.07.67c.47,9.28-2.29,20.23-9.68,27.42-.47.54-.54-.67-3.83,2.62-1.95-4.37-14.79-8.6-7.46-15.25-7.19,5.24,2.55,10.28,6.65,16.87l.14-.14c0,.07-.07.2-.07.27s0-.07-.07-.13c-3.63,4.3-7.59,13.1-10.55,18.54a181.78,181.78,0,0,1-31.45,9.55c2.22-4.1,1.34-9.68,1.28-15.53,5.31-.33,12.9-4.9,16.46-10.48a26.79,26.79,0,0,1-16.26,9.27c4.3-8.8,14.38-15.92,24.93-18.61a58.73,58.73,0,0,0-7.39,1.34c3.83-3.22,7.53-6.38,12.3-10.28,5.17-1.55,13.17-4.84,19.75-6-5.1,0-9.34,2.55-16.73,3.56,3.7-2.69,7.33-7.86,12.64-9.61-6.25,1.82-12.17,8.34-18.89,12.5-2.55,1.75-5.71,4.1-9.21,6.59,1.68-4.24,7.26-8.2,8.14-14-1.89,5-13.18,18.88-18.82,21.57,1.95-3.42,6.38-7.66,7.19-12.9-2.49,7.86-10.69,14.38-16.8,21.17-2.62-6.25,2.22-15.26-1.35-22,2.22,4.83-1.27,12.23-.73,18.54-.14,4.64,2.75,19.83-4.78,26.21-17,3.09-34.2-1-51.41-.87a125.08,125.08,0,0,1,4.44-21.3c2.48-.07,9.47.2,14.78-.54,4.17,1.21,2.09,6.72,15.19,1.81-3.29-.8-7,5.24-13.37-2.08a29.18,29.18,0,0,0,8.6-3,58.21,58.21,0,0,0,13.1-1.15,57.44,57.44,0,0,1-11.55.27c4.16-4.16,9.54-3.16,15.25-3.83-2.08-.4-4.57-1.48-8.74-.33,3.63-2.49,7.19-6.66,10.08-10.42-3.36,3.63-7.46,8.06-13.37,11,.2-3.09-3.76-7.53-.4-11.29-3,2.89-.74,7.12-.41,11.76a52.25,52.25,0,0,1-7.59,3.43c2.76-3.63,1.61-4.84,0-6.86,1,1.48,1.41,3.56-1.07,7.19-4.78,1.48-14.39.94-19.36.61,5.58-20,44-31.72,61.9-39,8.13,1.14,16.59-.81,25.06-3.36.27-.07.61-.2.88-.27,1.61-.54,3.22-1,4.9-1.54L387,533.82c-1.75.2-4.1.54-7.06.94a4.92,4.92,0,0,1-1,.14l-1.15.2c.21-.14.34-.2.54-.34a2,2,0,0,0,.47-.33c1.08-.68,2.09-1.42,3.16-2.16L360.54,526l-39.11-11.29a53.24,53.24,0,0,0,4.5,4.23c.34.27.61.54.94.81a59.42,59.42,0,0,0,6.86,4.9A122,122,0,0,0,297,542.42c-1.54,1.08-2.21,1.48-5,3.5a37.13,37.13,0,0,0-3.15-7.93c6.58-2.56-.54-5.18,15.86-8.94-3.83.6-9.41.47-12.17,4.17a15.61,15.61,0,0,0,1.28-5.58c1.07-.81,6.32-6.32,8.74-8.94-1.68,1.68-7.06,6.25-8.74,8-1.41-5.11-1.82-11.09.2-16.47.07-.2.2-.47.27-.67a21,21,0,0,1,1.21-2.42,18.72,18.72,0,0,1,2.69-3.56,26.52,26.52,0,0,0-3,3.49c-.47.68-.94,1.48-1.48,2.36a6,6,0,0,0-.33.67,22.34,22.34,0,0,0-1.28,2.89,28.53,28.53,0,0,0-.67-3.43c-.07-.27-.14-.54-.21-.87l-.6-2.62c.13.87.27,1.68.34,2.55,0,.27.06.54.06.81.27,4.57-.2,9.4.74,15.39-3-1.75-5.37-5.31-6.38-9.62a16,16,0,0,1-.34-1.81c.07.61.2,1.28.34,2,.6,3.43,1.68,7.59,6.58,10.95,0,3.36-.74,6.52-4.57,9.21a36.45,36.45,0,0,0-4.63-6.45c.06.07.06.13.13.2a7.57,7.57,0,0,1-.47-.6.35.35,0,0,1-.13-.21l-.07-.06c-.87-1.08-1.81-2.15-2.62-3.3s-1.48-2-2.15-3c-1.08,1.81-2.15,3.63-3.16,5.37.74,1,1.41,2,2.15,3,4.17,6.18,8,13.44,9.95,20.43h0l-.27.27-.27.27c-1.35-7-6.86-11-13.44-13.71-1-.41-2.09-.81-3.23-1.21-1.07,2-2.15,4-3.22,5.91a9.73,9.73,0,0,0-.74,1.48c1.07.4,2.15.8,3.16,1.28a32.87,32.87,0,0,1,3,1.61,58.27,58.27,0,0,1-6.05,4.23,13.76,13.76,0,0,1-4.5,1.48c-1.48,3-2.82,5.78-4,8.6a16.77,16.77,0,0,1,4.23-1.14,15.41,15.41,0,0,1,2.49-.2c-1.28,3.09-3,8.6-7,10.62a1.17,1.17,0,0,0-.34.2c.14-.07.2-.07.34-.14,3.76-1.47,6.38-6.51,8.26-10.88a23.11,23.11,0,0,0,11.63-7.8c1,1.28,2.69,3.83,4.23,6.18h0c-5.91,9.41-9.27,19.43-12.43,31a45.34,45.34,0,0,0-9.34-6.25,35.3,35.3,0,0,0-4-8.06,34,34,0,0,0-2.35-3.23c-.2-.2-.33-.47-.53-.67-.68-.8-1.42-1.61-2.16-2.42s-1.34-1.27-2-1.88c.07.4.13.81.2,1.14.74.81,1.48,1.68,2.22,2.63a56.63,56.63,0,0,1,4,6.11,31.31,31.31,0,0,1,2.28,5.24c-.73-.33-1.54-.67-2.35-1-.6-.26-1.27-.53-1.88-.73.4,1.61.74,3.22,1.14,4.83.61.14,1.21.27,1.82.47s.94.34,1.34.47a11.66,11.66,0,0,1-1.07.61,10.55,10.55,0,0,1-1.55.74c.07.33.2.67.27,1,.54-.2,1-.41,1.55-.61.73-.27,1.47-.6,2.21-.87a35.22,35.22,0,0,1,8.94,7.53,116.14,116.14,0,0,0-2.49,16.73c-.06,1.07-.13,2.08-.13,3.16s-.07,2.08-.07,3.09a6.77,6.77,0,0,0,.54.74c6,8.73,26.95,29,53.76,53.22l-.8-3c-.34-1.08-.67-2.08-1.08-3.16-5.51-15.19-16.33-28.63-18.14-45.29,16.06,2.08,34,3.42,51.41-.21,20.9,14.72,21.77-8.46,38.37,17,1.88,2.62,4.77,3.36,7.8,4.16-5-1.81-9.14-6.05-12-12.3,2.35,1.35,9.81,11.3,19.82,6.32-8.8,3.3-12.9-2.28-21.1-9.61,13.37-5.84-1.82,8.07,22.91,1.61-5.71-1.07-12.49,6.52-16.26-5,28.43-4.77,14.25,11,45.36,4.44-6.65-.4-14.92,4.3-21.84-3,11.83,1.34,26.95,1.21,38-3.7-7.46,2.82-18.07,3.23-27.68,2.28,2.68,0,5-6,13.84-5-5.85-2.08-10.69,3.5-17.34,4.64h0c-4.5-.4-9.74-2-15.25-3.43,4.83-3,9.81-10.41,16.86-10.82-6.45-1.47-15.59,14.25-36.49,9.75,5.38-3.5,12.57-6.39,18.21-11.36-11.82,7.39-27.89,15.86-43.48,11.76,51.82-14.51,26.21-21.17,66.33-10.75,1.89,2.49,8,2.82,16.13,2.82-3.76-.33-9.54-.54-14.11-2.48,7,.67,15.73-2,22.31-5.65-8.8,3.9-19.89,6.25-30.24,1.34a21.9,21.9,0,0,0,10.95-3.36c-7.66,3.83-19.35,1.35-25.47-.67,9.48-5,19.43-10,29.37-16.06,14.58,11,21.78,2,39.65,3.56-13.64-5.17-17.74,7.73-36.89-5.24,3.83-2.22,8.93-5.11,14.18-6.72,8.94,4.64,8.94,6.45,13.57,6.45,2.29,0,5.78-.47,12.17-1.28a1,1,0,0,0,.4-.06v-.74a.79.79,0,0,0-.4.07c-7.26.8-14.45,1.88-22.05-5.31,4.24-.07,13.18-1.55,22.05-2.22h.4v-2h-.4c-1.62-.13-3.23-.2-4.91-.33a7.18,7.18,0,0,0,4.91-2.49C477.28,565.88,477.41,565.74,477.54,565.54Zm-97.78,59.21a.76.76,0,0,1,.27.2A.76.76,0,0,0,379.76,624.75Zm5.11-3c.94,0,1.88-.06,2.82-.06-1.74.74-3.36,1-6.31,2a11.53,11.53,0,0,0-2.63-1.54A56.55,56.55,0,0,1,384.87,621.72Zm43.41-43.14c.88-1.21,1.82-2.69,2.89-4.37a59.14,59.14,0,0,1,4.17-5.71h0c7.39-3.5,18.28.06,26.61-4.51a5.2,5.2,0,0,1-.06.68,37.8,37.8,0,0,1-4.71,3.83C447.5,569,437.83,573.67,428.28,578.58Zm20.57,150.87c-22.72-29.9-35.62-25.94-56.65-27.82a97.84,97.84,0,0,1-16.4-2.82c-9.07-2.42-19.56-6.72-32.39-14.59a83.18,83.18,0,0,0-12.84-6.58c51.21,45.49,118.21,100.6,146,118.14l.33-60.41v-.21C464.64,735.5,456.38,733.21,448.85,729.45Zm53-161.15c-.13,0-.27.06-.4.06v.74a.9.9,0,0,0,.4-.13,41.35,41.35,0,0,0,8.34-3.16A39,39,0,0,1,501.87,568.3Zm0,7.52a11.32,11.32,0,0,0-.4-1.14v2.15c.07.2.13.47.2.67s.14.07.2.14c1.88.87,4,.27,6.45-.07C502.41,578,502.34,577.44,501.87,575.82Zm-53,153.63c-22.72-29.9-35.62-25.94-56.65-27.82a97.84,97.84,0,0,1-16.4-2.82c-9.07-2.42-19.56-6.72-32.39-14.59a83.18,83.18,0,0,0-12.84-6.58c51.21,45.49,118.21,100.6,146,118.14l.33-60.41v-.21C464.64,735.5,456.38,733.21,448.85,729.45Zm0,0c-22.72-29.9-35.62-25.94-56.65-27.82a97.84,97.84,0,0,1-16.4-2.82c-9.07-2.42-19.56-6.72-32.39-14.59a83.18,83.18,0,0,0-12.84-6.58c51.21,45.49,118.21,100.6,146,118.14l.33-60.41v-.21C464.64,735.5,456.38,733.21,448.85,729.45Zm0,0c-22.72-29.9-35.62-25.94-56.65-27.82a97.84,97.84,0,0,1-16.4-2.82c-9.07-2.42-19.56-6.72-32.39-14.59a83.18,83.18,0,0,0-12.84-6.58c51.21,45.49,118.21,100.6,146,118.14l.33-60.41v-.21C464.64,735.5,456.38,733.21,448.85,729.45Zm0,0c-22.72-29.9-35.62-25.94-56.65-27.82a97.84,97.84,0,0,1-16.4-2.82c-9.07-2.42-19.56-6.72-32.39-14.59a83.18,83.18,0,0,0-12.84-6.58c51.21,45.49,118.21,100.6,146,118.14l.33-60.41v-.21C464.64,735.5,456.38,733.21,448.85,729.45Zm0,0c-22.72-29.9-35.62-25.94-56.65-27.82a97.84,97.84,0,0,1-16.4-2.82c-9.07-2.42-19.56-6.72-32.39-14.59a83.18,83.18,0,0,0-12.84-6.58c51.21,45.49,118.21,100.6,146,118.14l.33-60.41v-.21C464.64,735.5,456.38,733.21,448.85,729.45Zm53.09-271-.54-.33v2.08c.2.07.34.14.54.2,3.49,1.15,9.34.41,13.51,1.48C508.19,459.56,507.65,462.18,501.94,458.48ZM498.51,541v1.14c.14,0,.2.07.34.07.47.07.94.2,1.41.27l1.95-.54C501,541.68,499.72,541.41,498.51,541Zm3.43-65.25a1.27,1.27,0,0,1-.47.06V476a.93.93,0,0,0,.47-.2,6.1,6.1,0,0,0,1.14-.34A6.1,6.1,0,0,1,501.94,475.76Zm0,17.74a.93.93,0,0,1-.47.13c-.94.34-2,.61-2.89.94v1.08c.94-.34,1.95-.74,2.89-1.14a3.07,3.07,0,0,1,.47-.21,57.51,57.51,0,0,0,9.54-4.57A84.5,84.5,0,0,1,501.94,493.5Zm0-23.79c-.13,0-.34.06-.47.06v.48a4,4,0,0,0,.47-.14,41.23,41.23,0,0,1,5.58-.81A39.44,39.44,0,0,0,501.94,469.71Zm23.45,62.63c-6.85.27-15.32,2-23.52,2.49h-.33c-1,.07-2,.07-3,.07v2c1-.07,2-.2,3-.27a.65.65,0,0,0,.33-.06c7.8-1,15.59-3.1,23.52-4.24Zm10.42-85.75a71.76,71.76,0,0,0-15.19-2.82c6.39.33,6.59-7.66,13-10.55-8.4,2.48-1.34,9.61-22.51,10.08h-3.16c3.76-2.36,9.75-3,11.76-11-2.62,7.06-9.61,9.41-17.67,10.82-.2,0-.34.07-.54.07v2.89c.2,0,.34-.07.54-.07l1.68-.2c2.82,2.08,9.34,5.58,14.38,3.16a11.48,11.48,0,0,1-1.28.87c4-.06,10.08.2,15,2.56-6.59-4.3-18.08-2.56-25.61-6.86C516.39,444.71,526.13,444.44,535.81,446.59Zm-33.94,88.24v1.81c7.8-.94,15.66-3.09,23.46-4.23h.06C518.54,532.61,510.07,534.36,501.87,534.83Zm0,0v1.81c7.8-.94,15.66-3.09,23.46-4.23h.06C518.54,532.61,510.07,534.36,501.87,534.83Zm0,0v1.81c7.8-.94,15.66-3.09,23.46-4.23h.06C518.54,532.61,510.07,534.36,501.87,534.83Zm0,0v1.81c7.8-.94,15.66-3.09,23.46-4.23h.06C518.54,532.61,510.07,534.36,501.87,534.83Zm0,0v1.81c7.8-.94,15.66-3.09,23.46-4.23h.06C518.54,532.61,510.07,534.36,501.87,534.83Zm82.06-23.93c-25.88-6-24.53,8.81-49.93,5.92,42.6-6.05,47.78-20.43,67.74-32.13-11.56,5.18-22.31,16-36,20.23-3.7-16.06-7.06-8.73,16.33-31.38-3.57,3.22-9.55,7.73-14.86,12.16,2.09-2.69,6.12-5.58,7.93-10-1.81,3.9-7.86,7.06-9.87,11.49-1.55,1.34-4.1,3.09-4.64,6.45-4.17-3.49-2.69-6.45-.4-11.69-2.22,3-6.19,6.38.4,13.44,9.21,17.2-17.74,13.64-29.44,15.79,7.06-5.17,10.55-17.4,20.3-21-17.27,5.85-14.52,28.37-41.4,18.62,6.65-2.42,1.68-9.41,9.54-13.51-6.51,1.08-3.15,9.34-11.08,13-2.16-.8-4.37-1.81-6.59-2.89l-.4-.2c-1-.47-2-.94-3-1.41v9c.94.4,1.95.8,3,1.14a.9.9,0,0,0,.4.13,122.88,122.88,0,0,0,12.5,4.24c8.67,6,1.21,5.57,15.52,10-6.18-4.1-4.36,1.28-14.18-10.82,6.25-.61,11,3.49,18.69,4.23,2.55,1.95,3.15,2.29,7.72,4.78a7.19,7.19,0,0,1,.21,1.2,4.7,4.7,0,0,1,.06.88,9.47,9.47,0,0,1-.27,2.69l5.45-1.48a10.43,10.43,0,0,0-.61-2.49,3.43,3.43,0,0,0-.33-.74c-.74-1.48-2.22-2.95-5.38-4.7h0l-.4-.2c1.48-.14,3.83-.54,6.79-.94,4.57-1.48,8.6.13,12.76,2.08l.88.4h0c1.27.61,2.62,1.21,4,1.75l2.56-.67c-1.35-.54-2.69-1.15-4-1.75l-.87-.4c-2.82-1.35-5.58-2.89-8.27-4,13.11-10.62,26.08-3.76,39.25-6.52C591,511.78,587.49,511,583.93,510.9Zm-82.06,23.93v1.81c7.8-.94,15.66-3.09,23.46-4.23h.06C518.54,532.61,510.07,534.36,501.87,534.83Zm0,0v1.81c7.8-.94,15.66-3.09,23.46-4.23h.06C518.54,532.61,510.07,534.36,501.87,534.83Zm0,0v1.81c7.8-.94,15.66-3.09,23.46-4.23h.06C518.54,532.61,510.07,534.36,501.87,534.83Zm0,0v1.81c7.8-.94,15.66-3.09,23.46-4.23h.06C518.54,532.61,510.07,534.36,501.87,534.83Zm0,0v1.81c7.8-.94,15.66-3.09,23.46-4.23h.06C518.54,532.61,510.07,534.36,501.87,534.83Zm0,0v1.81c7.8-.94,15.66-3.09,23.46-4.23h.06C518.54,532.61,510.07,534.36,501.87,534.83Zm76.28,6.11-3.7,1.08a23.29,23.29,0,0,0,7.53-2A17.82,17.82,0,0,1,578.15,540.94Zm-23.86,7.6a2.92,2.92,0,0,1-1.28-.41l-1.47.41a4.1,4.1,0,0,0,1.27.4c2.29.47,5.51-.07,11.43,1.08A31.14,31.14,0,0,0,554.29,548.54ZM448.85,729.45c-22.72-29.9-35.62-25.94-56.65-27.82a97.84,97.84,0,0,1-16.4-2.82c-9.07-2.42-19.56-6.72-32.39-14.59a83.18,83.18,0,0,0-12.84-6.58c51.21,45.49,118.21,100.6,146,118.14l.33-60.41v-.21C464.64,735.5,456.38,733.21,448.85,729.45Zm4-196.17a15,15,0,0,1-1.88,1.82l.2.06a20,20,0,0,0,1.68-1.88,1,1,0,0,0,.27-.33C453,533.08,452.88,533.15,452.81,533.28Zm-4,196.17c-22.72-29.9-35.62-25.94-56.65-27.82a97.84,97.84,0,0,1-16.4-2.82c-9.07-2.42-19.56-6.72-32.39-14.59a83.18,83.18,0,0,0-12.84-6.58c51.21,45.49,118.21,100.6,146,118.14l.33-60.41v-.21C464.64,735.5,456.38,733.21,448.85,729.45Zm30.51,5.65c-.54,0-1,.06-1.48.06h-1c-12.23.34-20.49-1.95-27.95-5.71-22.72-29.9-35.62-25.94-56.66-27.82a98,98,0,0,1-16.4-2.82c-9.07-2.42-19.55-6.72-32.39-14.59a82.65,82.65,0,0,0-12.83-6.58,33.81,33.81,0,0,0-3.77-1.21,24.89,24.89,0,0,0-3.29-.67C377.07,723.6,450.39,784,477.34,800.15l2.56,1.28.33-66.13V735C479.9,735,479.63,735,479.36,735.1Zm22.11-160.49v2.15c.07.21.13.47.2.68.07.06.14.06.2.13v-1.75A6,6,0,0,0,501.47,574.61Zm0,0v2.15c.07.21.13.47.2.68.07.06.14.06.2.13v-1.75A6,6,0,0,0,501.47,574.61Zm0,0v2.15c.07.21.13.47.2.68.07.06.14.06.2.13v-1.75A6,6,0,0,0,501.47,574.61Zm0,0v2.15c.07.21.13.47.2.68.07.06.14.06.2.13v-1.75A6,6,0,0,0,501.47,574.61Zm0,0v2.15c.07.21.13.47.2.68.07.06.14.06.2.13v-1.75A6,6,0,0,0,501.47,574.61Zm0,0v2.15c.07.21.13.47.2.68.07.06.14.06.2.13v-1.75A6,6,0,0,0,501.47,574.61Zm0,0v2.15c.07.21.13.47.2.68.07.06.14.06.2.13v-1.75A6,6,0,0,0,501.47,574.61ZM531.85,727a17.13,17.13,0,0,0-3.57-.4c-7.12,0-13.91,3.16-26.07,5.71l-1,.21c1-.14,1,59,1.28,58.46C511,773.07,532.72,727.17,531.85,727ZM501.47,574.61v2.15c.07.21.13.47.2.68.07.06.14.06.2.13v-1.75A6,6,0,0,0,501.47,574.61Zm0,0v2.15c.07.21.13.47.2.68.07.06.14.06.2.13v-1.75A6,6,0,0,0,501.47,574.61Zm0,0v2.15c.07.21.13.47.2.68.07.06.14.06.2.13v-1.75A6,6,0,0,0,501.47,574.61Zm0,0v2.15c.07.21.13.47.2.68.07.06.14.06.2.13v-1.75A6,6,0,0,0,501.47,574.61Zm0,0v2.15c.07.21.13.47.2.68.07.06.14.06.2.13v-1.75A6,6,0,0,0,501.47,574.61Zm0,0v2.15c.07.21.13.47.2.68.07.06.14.06.2.13v-1.75A6,6,0,0,0,501.47,574.61Zm0,0v2.15c.07.21.13.47.2.68.07.06.14.06.2.13v-1.75A6,6,0,0,0,501.47,574.61Zm0,0v2.15c.07.21.13.47.2.68.07.06.14.06.2.13v-1.75A6,6,0,0,0,501.47,574.61ZM290.65,490.54l-.47-.13a29.56,29.56,0,0,0,5.17,3l.34-.47A24.54,24.54,0,0,1,290.65,490.54Zm0,0-.47-.13a29.56,29.56,0,0,0,5.17,3l.34-.47A24.54,24.54,0,0,1,290.65,490.54Zm0,0-.47-.13a29.56,29.56,0,0,0,5.17,3l.34-.47A24.54,24.54,0,0,1,290.65,490.54Zm0,0-.47-.13a29.56,29.56,0,0,0,5.17,3l.34-.47A24.54,24.54,0,0,1,290.65,490.54Zm-4.57-1.28c-1.21,4.71-2.76,9.88-7.46,12.64a23,23,0,0,0-.2-14.85L275,486c1.88,5,2.29,10.28-.54,15.32a17.35,17.35,0,0,1-1.34,2.08c-.2.27-.4.54-.67.88l4.23,1.21a11.28,11.28,0,0,0,1.55-.54,12.54,12.54,0,0,0,2.95-1.68c4-3.23,4.57-8.6,5.78-13.84Zm4.57,1.28-.47-.13a29.56,29.56,0,0,0,5.17,3l.34-.47A24.54,24.54,0,0,1,290.65,490.54Zm0,0-.47-.13a29.56,29.56,0,0,0,5.17,3l.34-.47A24.54,24.54,0,0,1,290.65,490.54Zm0,0-.47-.13a29.56,29.56,0,0,0,5.17,3l.34-.47A24.54,24.54,0,0,1,290.65,490.54Zm0,0-.47-.13a29.56,29.56,0,0,0,5.17,3l.34-.47A24.54,24.54,0,0,1,290.65,490.54Zm0,0-.47-.13a29.56,29.56,0,0,0,5.17,3l.34-.47A24.54,24.54,0,0,1,290.65,490.54Zm0,0-.47-.13a29.56,29.56,0,0,0,5.17,3l.34-.47A24.54,24.54,0,0,1,290.65,490.54Zm0,0-.47-.13a29.56,29.56,0,0,0,5.17,3l.34-.47A24.54,24.54,0,0,1,290.65,490.54Zm0,0-.47-.13a29.56,29.56,0,0,0,5.17,3l.34-.47A24.54,24.54,0,0,1,290.65,490.54Zm0,0-.47-.13a29.56,29.56,0,0,0,5.17,3l.34-.47A24.54,24.54,0,0,1,290.65,490.54Zm-4.57-1.28c-1.21,4.71-2.76,9.88-7.46,12.64a23,23,0,0,0-.2-14.85L275,486c1.88,5,2.29,10.28-.54,15.32a17.35,17.35,0,0,1-1.34,2.08c-.2.27-.4.54-.67.88l4.23,1.21a11.28,11.28,0,0,0,1.55-.54,12.54,12.54,0,0,0,2.95-1.68c4-3.23,4.57-8.6,5.78-13.84Zm4.57,1.28-.47-.13a29.56,29.56,0,0,0,5.17,3l.34-.47A24.54,24.54,0,0,1,290.65,490.54Zm0,0-.47-.13a29.56,29.56,0,0,0,5.17,3l.34-.47A24.54,24.54,0,0,1,290.65,490.54Zm0,0-.47-.13a29.56,29.56,0,0,0,5.17,3l.34-.47A24.54,24.54,0,0,1,290.65,490.54Zm0,0-.47-.13a29.56,29.56,0,0,0,5.17,3l.34-.47A24.54,24.54,0,0,1,290.65,490.54Zm0,0-.47-.13a29.56,29.56,0,0,0,5.17,3l.34-.47A24.54,24.54,0,0,1,290.65,490.54Zm0,0-.47-.13a29.56,29.56,0,0,0,5.17,3l.34-.47A24.54,24.54,0,0,1,290.65,490.54Zm0,0-.47-.13a29.56,29.56,0,0,0,5.17,3l.34-.47A24.54,24.54,0,0,1,290.65,490.54Zm-4.57-1.28c-1.21,4.71-2.76,9.88-7.46,12.64a23,23,0,0,0-.2-14.85L275,486c1.88,5,2.29,10.28-.54,15.32a17.35,17.35,0,0,1-1.34,2.08c-.2.27-.4.54-.67.88l4.23,1.21a11.28,11.28,0,0,0,1.55-.54,12.54,12.54,0,0,0,2.95-1.68c4-3.23,4.57-8.6,5.78-13.84Zm4.57,1.28-.47-.13a29.56,29.56,0,0,0,5.17,3l.34-.47A24.54,24.54,0,0,1,290.65,490.54Zm0,0-.47-.13a29.56,29.56,0,0,0,5.17,3l.34-.47A24.54,24.54,0,0,1,290.65,490.54Zm0,0-.47-.13a29.56,29.56,0,0,0,5.17,3l.34-.47A24.54,24.54,0,0,1,290.65,490.54Zm0,0-.47-.13a29.56,29.56,0,0,0,5.17,3l.34-.47A24.54,24.54,0,0,1,290.65,490.54Zm0,0-.47-.13a29.56,29.56,0,0,0,5.17,3l.34-.47A24.54,24.54,0,0,1,290.65,490.54Zm-4.57-1.28c-1.21,4.71-2.76,9.88-7.46,12.64a23,23,0,0,0-.2-14.85L275,486c1.88,5,2.29,10.28-.54,15.32a17.35,17.35,0,0,1-1.34,2.08c-.2.27-.4.54-.67.88l4.23,1.21a11.28,11.28,0,0,0,1.55-.54,12.54,12.54,0,0,0,2.95-1.68c4-3.23,4.57-8.6,5.78-13.84Zm4.57,1.28-.47-.13a29.56,29.56,0,0,0,5.17,3l.34-.47A24.54,24.54,0,0,1,290.65,490.54Zm0,0-.47-.13a29.56,29.56,0,0,0,5.17,3l.34-.47A24.54,24.54,0,0,1,290.65,490.54Zm0,0-.47-.13a29.56,29.56,0,0,0,5.17,3l.34-.47A24.54,24.54,0,0,1,290.65,490.54Zm-4.57-1.28c-1.21,4.71-2.76,9.88-7.46,12.64a23,23,0,0,0-.2-14.85L275,486c1.88,5,2.29,10.28-.54,15.32a17.35,17.35,0,0,1-1.34,2.08c-.2.27-.4.54-.67.88l4.23,1.21a11.28,11.28,0,0,0,1.55-.54,12.54,12.54,0,0,0,2.95-1.68c4-3.23,4.57-8.6,5.78-13.84Zm4.57,1.28-.47-.13a29.56,29.56,0,0,0,5.17,3l.34-.47A24.54,24.54,0,0,1,290.65,490.54Zm-4.57-1.28c-1.21,4.71-2.76,9.88-7.46,12.64a23,23,0,0,0-.2-14.85L275,486c1.88,5,2.29,10.28-.54,15.32a17.35,17.35,0,0,1-1.34,2.08c-.2.27-.4.54-.67.88l4.23,1.21a11.28,11.28,0,0,0,1.55-.54,12.54,12.54,0,0,0,2.95-1.68c4-3.23,4.57-8.6,5.78-13.84Zm0,0c-1.21,4.71-2.76,9.88-7.46,12.64a23,23,0,0,0-.2-14.85L275,486c1.88,5,2.29,10.28-.54,15.32a17.35,17.35,0,0,1-1.34,2.08c-.2.27-.4.54-.67.88l4.23,1.21a11.28,11.28,0,0,0,1.55-.54,12.54,12.54,0,0,0,2.95-1.68c4-3.23,4.57-8.6,5.78-13.84Zm0,0c-1.21,4.71-2.76,9.88-7.46,12.64a23,23,0,0,0-.2-14.85L275,486c1.88,5,2.29,10.28-.54,15.32a17.35,17.35,0,0,1-1.34,2.08c-.2.27-.4.54-.67.88l4.23,1.21a11.28,11.28,0,0,0,1.55-.54,12.54,12.54,0,0,0,2.95-1.68c4-3.23,4.57-8.6,5.78-13.84Zm0,0c-1.21,4.71-2.76,9.88-7.46,12.64a23,23,0,0,0-.2-14.85L275,486c1.88,5,2.29,10.28-.54,15.32a17.35,17.35,0,0,1-1.34,2.08c-.2.27-.4.54-.67.88l4.23,1.21a11.28,11.28,0,0,0,1.55-.54,12.54,12.54,0,0,0,2.95-1.68c4-3.23,4.57-8.6,5.78-13.84ZM267.87,501.9a14.59,14.59,0,0,1-.81-2.62c-.67-3.43-.2-7.46.07-11.56a15.25,15.25,0,0,0-.74-4.17c-.27-.8-.47-1.68-.74-2.55l-.54-.14c.07.74.2,1.55.27,2.36.47,4.23.74,9.2-.87,13.71-2.56-4-8.27-8.61-11.76-13.31,2.69,4.23,7.66,9.47,11.35,14.78a4.75,4.75,0,0,1,.54.81c.14.61.27,1.21.47,1.81a11.87,11.87,0,0,0,.54,1.35l2.82.81C268.34,502.84,268.07,502.37,267.87,501.9Zm-.54-1.08c-.07-.2-.2-.33-.27-.53C267.2,500.55,267.33,500.69,267.33,500.82Zm18.75-11.56c-1.21,4.71-2.76,9.88-7.46,12.64a23,23,0,0,0-.2-14.85L275,486c1.88,5,2.29,10.28-.54,15.32a17.35,17.35,0,0,1-1.34,2.08c-.2.27-.4.54-.67.88l4.23,1.21a11.28,11.28,0,0,0,1.55-.54,12.54,12.54,0,0,0,2.95-1.68c4-3.23,4.57-8.6,5.78-13.84Zm0,0c-1.21,4.71-2.76,9.88-7.46,12.64a23,23,0,0,0-.2-14.85L275,486c1.88,5,2.29,10.28-.54,15.32a17.35,17.35,0,0,1-1.34,2.08c-.2.27-.4.54-.67.88l4.23,1.21a11.28,11.28,0,0,0,1.55-.54,12.54,12.54,0,0,0,2.95-1.68c4-3.23,4.57-8.6,5.78-13.84Zm0,0c-1.21,4.71-2.76,9.88-7.46,12.64a23,23,0,0,0-.2-14.85L275,486c1.88,5,2.29,10.28-.54,15.32a17.35,17.35,0,0,1-1.34,2.08c-.2.27-.4.54-.67.88l4.23,1.21a11.28,11.28,0,0,0,1.55-.54,12.54,12.54,0,0,0,2.95-1.68c4-3.23,4.57-8.6,5.78-13.84Zm0,0c-1.21,4.71-2.76,9.88-7.46,12.64a23,23,0,0,0-.2-14.85L275,486c1.88,5,2.29,10.28-.54,15.32a17.35,17.35,0,0,1-1.34,2.08c-.2.27-.4.54-.67.88l4.23,1.21a11.28,11.28,0,0,0,1.55-.54,12.54,12.54,0,0,0,2.95-1.68c4-3.23,4.57-8.6,5.78-13.84Zm4.57,1.28-.47-.13a29.56,29.56,0,0,0,5.17,3l.34-.47A24.54,24.54,0,0,1,290.65,490.54Zm0,0-.47-.13a29.56,29.56,0,0,0,5.17,3l.34-.47A24.54,24.54,0,0,1,290.65,490.54Zm-4.57-1.28c-1.21,4.71-2.76,9.88-7.46,12.64a23,23,0,0,0-.2-14.85L275,486c1.88,5,2.29,10.28-.54,15.32a17.35,17.35,0,0,1-1.34,2.08c-.2.27-.4.54-.67.88l4.23,1.21a11.28,11.28,0,0,0,1.55-.54,12.54,12.54,0,0,0,2.95-1.68c4-3.23,4.57-8.6,5.78-13.84Zm4.57,1.28-.47-.13a29.56,29.56,0,0,0,5.17,3l.34-.47A24.54,24.54,0,0,1,290.65,490.54Zm0,0-.47-.13a29.56,29.56,0,0,0,5.17,3l.34-.47A24.54,24.54,0,0,1,290.65,490.54Zm0,0-.47-.13a29.56,29.56,0,0,0,5.17,3l.34-.47A24.54,24.54,0,0,1,290.65,490.54Zm0,0-.47-.13a29.56,29.56,0,0,0,5.17,3l.34-.47A24.54,24.54,0,0,1,290.65,490.54Zm-4.57-1.28c-1.21,4.71-2.76,9.88-7.46,12.64a23,23,0,0,0-.2-14.85L275,486c1.88,5,2.29,10.28-.54,15.32a17.35,17.35,0,0,1-1.34,2.08c-.2.27-.4.54-.67.88l4.23,1.21a11.28,11.28,0,0,0,1.55-.54,12.54,12.54,0,0,0,2.95-1.68c4-3.23,4.57-8.6,5.78-13.84Zm4.57,1.28-.47-.13a29.56,29.56,0,0,0,5.17,3l.34-.47A24.54,24.54,0,0,1,290.65,490.54Zm0,0-.47-.13a29.56,29.56,0,0,0,5.17,3l.34-.47A24.54,24.54,0,0,1,290.65,490.54Zm0,0-.47-.13a29.56,29.56,0,0,0,5.17,3l.34-.47A24.54,24.54,0,0,1,290.65,490.54Zm0,0-.47-.13a29.56,29.56,0,0,0,5.17,3l.34-.47A24.54,24.54,0,0,1,290.65,490.54Zm0,0-.47-.13a29.56,29.56,0,0,0,5.17,3l.34-.47A24.54,24.54,0,0,1,290.65,490.54Zm0,0-.47-.13a29.56,29.56,0,0,0,5.17,3l.34-.47A24.54,24.54,0,0,1,290.65,490.54Zm-4.57-1.28c-1.21,4.71-2.76,9.88-7.46,12.64a23,23,0,0,0-.2-14.85L275,486c1.88,5,2.29,10.28-.54,15.32a17.35,17.35,0,0,1-1.34,2.08c-.2.27-.4.54-.67.88l4.23,1.21a11.28,11.28,0,0,0,1.55-.54,12.54,12.54,0,0,0,2.95-1.68c4-3.23,4.57-8.6,5.78-13.84Zm4.57,1.28-.47-.13a29.56,29.56,0,0,0,5.17,3l.34-.47A24.54,24.54,0,0,1,290.65,490.54Zm0,0-.47-.13a29.56,29.56,0,0,0,5.17,3l.34-.47A24.54,24.54,0,0,1,290.65,490.54Zm0,0-.47-.13a29.56,29.56,0,0,0,5.17,3l.34-.47A24.54,24.54,0,0,1,290.65,490.54Zm0,0-.47-.13a29.56,29.56,0,0,0,5.17,3l.34-.47A24.54,24.54,0,0,1,290.65,490.54Zm0,0-.47-.13a29.56,29.56,0,0,0,5.17,3l.34-.47A24.54,24.54,0,0,1,290.65,490.54Zm0,0-.47-.13a29.56,29.56,0,0,0,5.17,3l.34-.47A24.54,24.54,0,0,1,290.65,490.54Zm0,0-.47-.13a29.56,29.56,0,0,0,5.17,3l.34-.47A24.54,24.54,0,0,1,290.65,490.54Zm0,0-.47-.13a29.56,29.56,0,0,0,5.17,3l.34-.47A24.54,24.54,0,0,1,290.65,490.54Zm-4.57-1.28c-1.21,4.71-2.76,9.88-7.46,12.64a23,23,0,0,0-.2-14.85L275,486c1.88,5,2.29,10.28-.54,15.32a17.35,17.35,0,0,1-1.34,2.08c-.2.27-.4.54-.67.88l4.23,1.21a11.28,11.28,0,0,0,1.55-.54,12.54,12.54,0,0,0,2.95-1.68c4-3.23,4.57-8.6,5.78-13.84Zm4.57,1.28-.47-.13a29.56,29.56,0,0,0,5.17,3l.34-.47A24.54,24.54,0,0,1,290.65,490.54Zm0,0-.47-.13a29.56,29.56,0,0,0,5.17,3l.34-.47A24.54,24.54,0,0,1,290.65,490.54Zm0,0-.47-.13a29.56,29.56,0,0,0,5.17,3l.34-.47A24.54,24.54,0,0,1,290.65,490.54Zm0,0-.47-.13a29.56,29.56,0,0,0,5.17,3l.34-.47A24.54,24.54,0,0,1,290.65,490.54Zm0,0-.47-.13a29.56,29.56,0,0,0,5.17,3l.34-.47A24.54,24.54,0,0,1,290.65,490.54ZM476.81,329.86a58.61,58.61,0,0,1-24.4,12.83c2.76-2.28,7.26-8.94,12.3-10.15-4.64.95-10.22,6.25-14.11,10.69-5.31,1.55-11.43,2.55-17.41,4.84,7.8-17.14,24.39-14.58,36.16-26-6.12,5.44-19.49,8.2-26.55,11.76,7.06-10.48,19.56-19,31.79-24.19-4.64.27-16.67,8.06-24.73,12.63a39.42,39.42,0,0,0,6.92-18.14c-.94,7.52-7,16.33-12.17,22.85l-.33.33c2-3.83,2.55-9.47,3.56-14.85,18.62-21.64,16.47-10.68,28.23-17.81-4.1,1.68-9.55,1.75-13.92,2.62a90.35,90.35,0,0,0,14.32-17.87l1.61-2.62c.54-.88,1-1.68,1.48-2.49a23.35,23.35,0,0,1-1.48,2.15c-.54.74-1.07,1.54-1.61,2.28A124.8,124.8,0,0,1,457.05,299c.53-1.75,1.07-3.16,1.54-4.3,1.48-3.36,2.83-5,3.23-8.54-.67.74-1.41,1.55-2.08,2.36-1.08,3-2.42,5.91-3.43,8.8a30.12,30.12,0,0,0-.94,3.36l.06-.07v-.06h0v-.07c0-.07,0-.07.07-.14v-.06h0l.07-.07h0l.2-.2a.24.24,0,0,1,.13-.07l.14-.13h0c.13-.07.2-.21.34-.27l.06-.07h0l.07-.07.2-.2-.2.2-.13.14-.07.06-.07.07c-.07.07-.13.14-.13.2l-.34.34-.47.47L455,301a79.17,79.17,0,0,1-7.59,7.12,7.86,7.86,0,0,0,.2-1.27,22.31,22.31,0,0,0,.13-5.25c-.74.81-1.41,1.62-2.15,2.42a26.74,26.74,0,0,1-1.34,6.45c-1.95,1.42-4,2.83-6.59,4.51a15.66,15.66,0,0,0,.61-2.76c-8.6,9.75-18,20.5-27.83,32.06,4-3,8.47-6.05,12.64-9.55a54.26,54.26,0,0,0,11.36-12.43,4.37,4.37,0,0,0,.27-.47v-.07h0c0-.06.06-.06.06-.13a.07.07,0,0,1,.07-.07c0-.06.07-.06.07-.13s.06-.2.2-.27h0c0-.07.07-.13.13-.2s.07-.14.14-.2c0,.2,0,.13-.07,1.07,2.22-1.41,4-2.69,6.72-4.7l.07-.07c.2-.13.33-.27.54-.4s.33-.27.47-.41c.47-.4,1-.8,1.54-1.21.74-.53,1.41-1.14,2.22-1.81-1.28,5.11-3,12.3-6.52,18.35-3.36,4-7.12,9.07-10.95,13.84,1.14-7.59,4.63-15,5.84-23.52-.2.13-.47.27-.67.4-4.37,11.63-6.52,27.69-18.14,35.82A46.67,46.67,0,0,1,411,361a16.75,16.75,0,0,0-7.79,3c-2,.8-4.51,1.61-7.13,2.35-1.81.54-3.69,1-5.64,1.48-2.76,3.29-5.51,6.58-8.27,9.94,1.75-.27,3.5-.67,5.24-1.07A110,110,0,0,0,418,363.93c14.11-1.35,30.31-4.17,45.16-6.05-12.56,1-27.15,1.34-40.86,2.76a41.57,41.57,0,0,0,4.3-4.51c1.08-.74,1.28-.94,3.7-2.48,15.32-.34,31.18,2.35,44.62-8.47-10.55,8.4-26.07,5.85-39.24,5.85,13.5-4.78,29.9-9,40.59-20.5.4-.4.74-.81,1.14-1.21a13.48,13.48,0,0,0,.94-1.14c-.34.26-.6.6-.94.87C477.54,329.18,477.21,329.52,476.81,329.86Zm-40.19-13.78c0,.07,0,.07-.07.13s-.07.14-.07.21a1,1,0,0,0-.27.13v-.13a.07.07,0,0,1,.07-.07h0c0-.07,0-.07.07-.14v-.06c0-.07.07-.14.07-.2a.26.26,0,0,1,.06-.14h0a1.57,1.57,0,0,1,.27-.4.15.15,0,0,1,.14-.14,1.07,1.07,0,0,1,.26-.33c.07-.07.07-.14.14-.14h0a1.66,1.66,0,0,1,.4-.33A6.12,6.12,0,0,0,436.62,316.08ZM332.79,440.81l-1.15,1.55c3.5-1.89,8.74-3.7,9.88-8.94C340.65,436.91,336.82,439.2,332.79,440.81Zm169.42,12.84c2.15-.74,7.66-1.08,14.58-3.77A61,61,0,0,1,502,452.1h-.54v2.55a1.44,1.44,0,0,1,.54.07c4,.4,8.33,1.21,13.1.61C511.48,455.53,506.78,454.18,502.21,453.65Zm-21.64,80.84v-4.37a19.48,19.48,0,0,1-3-2.75,2.24,2.24,0,0,1-.33-.4,21.94,21.94,0,0,1-3.09-4.71c.94.34,2,.67,3.09,1a2.55,2.55,0,0,1,.33.07,19.58,19.58,0,0,0,3,.6v-.87a18,18,0,0,1-3-1c-.13-.07-.26-.07-.4-.13-6.05-2.63-11.69-7.87-18-12.64a49.36,49.36,0,0,1,17.94-2.42h.41c1,.07,2,.2,2.95.34V497.06l-2.95-.4c-.14,0-.27-.07-.41-.07a54.43,54.43,0,0,0-13.64.34c-.07-.74,7-6.73,13.64-9.68.14-.07.34-.14.47-.2a28.64,28.64,0,0,1,2.89-1v-.67a18.62,18.62,0,0,0-2.89.67c-.13.07-.33.07-.47.13a44.89,44.89,0,0,0-10.48,5.18c1.48-5.11,5.38-9.14,10.48-11.83a1.5,1.5,0,0,0,.47-.27v-2.49c-.13.07-.33.14-.47.21-3.36,1.41-7.59,3-10.41,6.92,2.15-8.74,7.39-7.06,8.2-20.43a7.42,7.42,0,0,1,2.21,1.34,4.22,4.22,0,0,0,.54.41,9.61,9.61,0,0,0,.88.67,11.34,11.34,0,0,0-.88-1,2.7,2.7,0,0,0-.54-.4c-3.36-2.49-8.93-1.75-14.18-2,1.82-.34,3.77-.81,5.78-1.35a69.76,69.76,0,0,1,8.34-1.74c.2,0,.33-.07.53-.07V458H477a42.3,42.3,0,0,0-8.74,1.14c2.15-.67,5.11-2.55,8.74-3.5.2-.06.33-.06.53-.13v-7.53c-.2.07-.33.21-.53.27a16.58,16.58,0,0,0-1.95,1.08,16.28,16.28,0,0,1,1.95-3.16,6.77,6.77,0,0,0,.53-.74V443a2.3,2.3,0,0,0-.53.6c-2.15,2.62-4.57,8.87-15.66,11.9-6.65,2.15-18.82,1.74-25.14,1,11.09-9.61,25.88-14.52,40.8-18a3.74,3.74,0,0,0,.53-.13V424.28c-.2,0-.4.06-.6.06-4.77.68-9.68,1.48-14.92,2.63a32.36,32.36,0,0,0,3.83-11.76c2.42-4.17,6.65-6.59,11.09-8.94a5.92,5.92,0,0,1,.67-.34v-1.61a6.62,6.62,0,0,1-.67.27c-3.9,1.74-7.8,3.63-10.75,7,0-.54,0-.14.06-1.28a152.32,152.32,0,0,0,8.88-14.45c.53-.4,1.14-.81,1.81-1.28.2-.13.47-.33.67-.47v-1.21a5.78,5.78,0,0,0-.74.54,6,6,0,0,0-.8.67,9.08,9.08,0,0,1,.8-1.54,7.8,7.8,0,0,1,.74-.94l.07-24.13L477.61,390l-.74.74c-2.89,3-5.11,7.26-10.68,15.12-5.18-28.09,1.68-30,10.62-37.56a8.39,8.39,0,0,1,.87-.74v-2.09l-.87.68c-3.63,2.82-7.53,5.57-10.69,8.87a58.75,58.75,0,0,0,3.76-19.49c0,6.32-3.83,14.25-5.37,21.37a18.54,18.54,0,0,0-2.76,5.44c-1.28-6.18-5.91-13.1-6.85-20.16.33,6.65,5.17,16.47,6,24.13-.81,6.58,1,13.3.47,21-8.27-3.7-12.23-14.59-15.86-23.12,2,5.57,3,13.1,7.12,18.61-1.54-.6-16.6,1.68-16.93-3.22-2.29,3.89,16.8,5,18.07,4.37,2.09,1.81,5.11,3.76,7.26,6.72a28.73,28.73,0,0,1-9.27,19.15c-23.79,6.25-43.28,25-55.65,46.5a44.75,44.75,0,0,0-3-14.85c4.84-6.11,7.79-14.25,9.41-23.32,7.26-8.73,18.75-12,29.77-16.53-5.31,1.75-11.83,2.62-17,4.37,5-4.84,10.88-7.6,14-13.78-6.58,7.93-17.27,14.32-26.14,22.18.27-1.82.47-3.7.61-5.71,9.27-21.31,13.77-25.41,17.67-26.55s7.33.74,14.25-8.47c-13.24,16.27-16.13-6.18-31.79,28.36-7.12-37.23,12.3-30.17,22-48-4.57,6.11-13.7,9.41-19.48,15.93,3-4.91,9.61-10.62,9.2-18.28-.06,8.6-13.1,17.54-16.46,29.3-2.56-5.51-6.86-12.37-3-19.63-4.43,6.59-.33,14.79,2.29,22.92a44.4,44.4,0,0,0,.33,9.75.54.54,0,0,0-.26.06,44.48,44.48,0,0,0-9-10.35c.6-3.63.87-8.73,3.63-12.16-2,1.95-3.83,7.19-4.5,11.49-1.55-1.34-4.44-2.55-5.45-5.91.61,2.22,2.15,4.16,5.31,6.65-.87,4-2.75,9.27-8.06,10.62a41.65,41.65,0,0,1-1-8.47,47,47,0,0,0,.4,8.67,51.06,51.06,0,0,0-6.65,3.16c.07-4.71,1.14-12,1.14-18.68-.07,5.1-2.62,12.63-2.15,19.28a16.38,16.38,0,0,0-5,5.38,53.45,53.45,0,0,1-5.38-14.92c-.27-1.54-.54-3-.67-4.57-3.76,4.71-7.53,9.48-11.22,14.25-.47.67-1,1.28-1.48,1.88.33,1.34.74,2.62,1.21,4a96.1,96.1,0,0,0,17.27,30.77c.47.61.94,1.21,1.34,1.75-6.31,1.55-10.82-2-13-8.67a26.47,26.47,0,0,0,3,7c-4.1-2.75-9.88-6-12.84-11,3,5.31,8.47,9.95,15,13.78-2.22.6-2.69,5.64-8.74,5.1,2.29.61,4.1,1.15,9.54-4.77-.06,0-.13-.06-.2-.06s.14.06.2.06.14-.06.14-.13v.07h0c14.72-1.55,16.26,16.33,13.64,28.49-3.16,2.62-6.52,7.12-9.47,11.09,0-5.44-.54-12-3.63-17.88,1.61,0,4.7.2,6.92.47a65.49,65.49,0,0,0-7.19-1c-1.35-2.89-4.37-6-5.11-9.75.27,2.55,2.15,5.58,4.17,9.68a42.18,42.18,0,0,0-4.24-.07c-1-1.34-4.5-2.42-5.24-5.11.2,1.48,1,1.95,4.5,5.11a25.69,25.69,0,0,0-12.7,4.44c5.24-8.27-.13-21.91,9.21-29.57-9,6-5.85,17.94-10.75,27.68.47-5.24,3.29-14.58-2.15-20.09,5,5.71.94,14.25.74,21.91a13.46,13.46,0,0,1-5.65,3.63c-4.37-8.4-7-19-9.95-29.44-.26-1-.6-2.08-.87-3.09h0v-.27c0,.07.07.14.07.2a23.37,23.37,0,0,1,1.27-3.09c-1.68,2.29-3.29,4.51-4.9,6.72.2,1.08.47,2.22.74,3.43a17.2,17.2,0,0,1-1.95-1.68l-.54.74c.67.67,1.48,1.48,2.42,2.35l.4.4c.41,2.09,1.08,5.38,1.75,8.47-.74-.4-1.34-.67-3-1.48-.4-1.34-.94-2.75-1.47-4.23-.47-1.21-1-2.42-1.55-3.63q-7,9.89-13.51,19.15a33.57,33.57,0,0,1,3.36,1.08l1.41.6c.54,2.83,1.08,5.92,1.82,9,.07.2.13.47.2.67.27,1,.54,2.09.87,3.09l23.12,6.52c.4-.87.81-1.75,1.14-2.69a.9.9,0,0,0,.14-.47,17,17,0,0,0,.07-9.67c6.72-2.15,12.43-9.28,21.16-9.95,2.83,5.17,9.14,10.75,6.32,22.38-1.14-7.12-11.42-9.41-12-17.41v1.35c3.43,10.88,12.3,10.08,10.35,20.56,0,.14-.07.2-.07.34-.2.87-.4,1.88-.73,2.89l3.69,1c.2-.95.4-1.95.61-3a3.2,3.2,0,0,1,.06-.34c.81-4,1.82-8.2,4.24-11.29a36.16,36.16,0,0,0-3.43,4.1v-.8c2.82-3.57,5-8.27,9.41-12.64-1.48,7.12-2.22,14.79-4.77,22.11-.07.14-.07.27-.14.4a17,17,0,0,1-.67,1.75c-.34.2-.81.47-1.28.81L396.36,520c2.49,0,5.78-.06,9.28-.33h0c.53-.07,1.14-.07,1.68-.14h.2a.07.07,0,0,0-.07.07,5.64,5.64,0,0,1-.67.4,14.89,14.89,0,0,0-2.35,2.22l.87.2c.67-.74,1.34-1.54,2.08-2.28l.47-.47.21-.2c3.29-.27,6.45-.61,12.5-1.42a23.06,23.06,0,0,0-1.68,2c-.95,1.08-1.08,1.41-1.68,2.15-.14.14-.27.34-.48.54-.33.4-.87.87-1.54,1.61-1.21,0-2.42-.13-3.7-.2l7.46,2.08,13.91,3.77a55.71,55.71,0,0,0-16.13-5.38c.41-.47.81-1,1.15-1.48.13-.2.27-.33.4-.54.81-1.21,1.68-2.62,3.23-4.57,21.3-.33,26.14-14.85,46.37,4.31,1.07,3.56-.2,9.54,1.48,14.11a8.4,8.4,0,0,0,.87,1.75c.27.4.54.74.81,1.07a4,4,0,0,1-.61-1,7,7,0,0,1-.54-1.68c-.6-3-.13-7.26-.67-12.83,2.35,3,7.06,5.84,7.8,11.22a18.13,18.13,0,0,1-1.21,3.23,13.65,13.65,0,0,1-.74,1.41c-.34.53-.67,1.07-1,1.54l1.21.34a11.39,11.39,0,0,0,1.07-1.48,10,10,0,0,0,.81-1.48,8.94,8.94,0,0,0,.4-.87c.07-.07.07-.2.14-.27.07.2.13.34.2.54h0a4.23,4.23,0,0,1-.47,4.16l3,.81a71.79,71.79,0,0,1-1.27-9.34A5.68,5.68,0,0,0,480.57,534.49Zm-12.23-75.4a4.19,4.19,0,0,1-1,.2A9,9,0,0,0,468.34,459.09Zm-1.41.27ZM321.16,473.54c.67.4,1.14.74,2.22,1.48.6,7,7.05,14.65,5.11,22.71-4-6.45-5.51-15.72-8-24.59C320.76,473.34,321,473.4,321.16,473.54ZM357.25,480a36.07,36.07,0,0,1,3.63-.2,30.83,30.83,0,0,1,2.28,8.6C361.62,486.24,362.16,487.11,357.25,480ZM399,413.86c0,.2.07.34.07.54-.13-.2-.07-.14-.27-.47A.23.23,0,0,0,399,413.86Zm-12.63-1.21a16.71,16.71,0,0,0,3.16-8.26,48.31,48.31,0,0,1,7.26,9.67c-3,.2-7.6-.47-12,.2A17.46,17.46,0,0,0,386.35,412.65Zm-4.91,3.43c3.77-1.21,10.28-1.55,15.46-1.82,2.76,6,2,13.51.27,20.64-7.6-8.54-15.79-1.75-16.26-18.62A4.3,4.3,0,0,0,381.44,416.08ZM369.21,427c1.68-4.43,5.38-7.86,11-10.35-2.89,23.79,28.09,7.13,9.61,37.37C383.86,444.57,374.79,437.72,369.21,427Zm58.07,76.55c8.4-8.13,16-8.4,28-11.56-6.05.94-13,.13-19.22,3.43,2.75-4.3,7.12-6.52,11.69-9.61a30.77,30.77,0,0,0-7.25,3.22c.2-5.37,1.54-13.84,8.87-15.59-10.35.94-7.26,14.32-14.18,20,.26-3.77,1.68-8-1.21-12.23,2,3.42,1.27,8.2-.07,13.24-.34.2-.54.4-4.23,4.1h0l-.07.06h0l-.07.07h0c-.07.07-.27.2-.81.67h0l-.06.07-.07.07s-.07,0-.07.06-.06.07-.13.07a244426325150.19,244426325150.19,0,0,1-.14.14l-.06.06a.24.24,0,0,1-.14.07h0c-.06,0-.06.07-.06.07h0s-.07,0-.07.06-.27.21-1.82.88c.27-.14.94-.47,1.82-.88a57.48,57.48,0,0,1-22.52,5.45c6.79-14,13.38-30,24.47-42.48,13.91,2.16,29.63.14,45.23.41-.34,6.38-4.57,11.36-8.88,17.61-.06-3.77-5-7.33-9.07-11.23,1.88,3.23,7.46,5,8.33,13a20.82,20.82,0,0,0-1.34,5.78h0C458.86,501.9,440.58,501.16,427.28,503.58Zm5-6.45Zm40.93,24.8c-.14-.21-.34-.41-.47-.61a13.45,13.45,0,0,1,1.34.94A4.42,4.42,0,0,0,473.18,521.93Z"
        transform="translate(0)" style="fill:#1DB954;opacity:0.8" />
    <g style="clip-path:url(#a)">
        <path
            d="M844.28,802.37c-4.24-1.41-10.62-8.54-24.8-15.59-14.79-7.4-31.86,4.23-42.54-7.06-3.9-4.17-8.74-5.78-17.54-8.87-12.91-4.57-33.94-1.14-48.32-9.54-8.54-5-22-2.15-35.42-5.65-21.91-5.78-48.52-3.83-51-6.38-4.23-4.24-11.35-5.65-19.82-10.62-6.86-4-28.36.74-40.39.74s-25.54-12.77-36.16-12.77-20.56,7-48.92,8.53c-13.58.68-22.51-1.61-30.51-5.57-22.65-29.91-35.62-26-56.65-27.83a97.84,97.84,0,0,1-16.4-2.82c-9-2.42-19.56-6.72-32.39-14.58-8.27-5-15.53-8.81-24.4-8.81v.14c-.07-.07-.13-.14-.2-.14h.13c-2.89-19.82-18.61-35.48-20.9-56,16.06,2.09,34,3.43,51.48-.2,20.9,14.72,21.77-8.47,38.37,17,1.89,2.62,4.78,3.36,7.8,4.17-5-1.81-9.14-6-12-12.3,2.35,1.35,9.81,11.29,19.82,6.32-8.8,3.29-12.9-2.29-21.1-9.61,13.37-5.85-1.81,8.06,22.92,1.61-5.71-1.07-12.5,6.52-16.27-5,28.43-4.77,14.25,11,45.37,4.44-6.66-.41-14.92,4.3-21.84-3,11.82,1.35,26.94,1.28,38-3.69-7.46,2.82-18.08,3.22-27.69,2.28,2.69,0,5-6,13.84-5-5.85-2.08-10.68,3.5-17.34,4.64h0c-4.5-.4-9.74-2-15.25-3.43,4.84-3,9.81-10.35,16.87-10.82-6.46-1.48-15.6,14.25-36.5,9.75,5.38-3.5,12.57-6.39,18.22-11.36-11.83,7.39-27.89,15.86-43.48,11.76,51.81-14.52,26.21-21.17,66.33-10.75,1.88,2.48,8,2.82,16.12,2.82-3.76-.34-9.54-.54-14.11-2.49,7,.67,15.73-2,22.31-5.64-8.8,3.83-19.89,6.25-30.24,1.34a21.5,21.5,0,0,0,11-3.43c-7.67,3.83-19.36,1.35-25.47-.67,9.47-5,19.42-10,29.36-16.06,14.59,11,21.78,2,39.65,3.56-13.57-5.17-17.74,7.73-36.89-5.24a71.11,71.11,0,0,1,14.18-6.72c8.94,4.64,8.94,6.45,13.57,6.45,3.16,0,8.61-.87,20.64-2.28-10.35-1.08-20,4.9-30.51-5,9.81-.21,44-7.67,46.57,4.36,1.88,1.08,4.16.41,6.65,0-10.82,1.08-2.08-2-11.89-7.32a47.28,47.28,0,0,0,13.77-4.3c-6.58,2.75-13.91,3.43-21.57,3.43h-1.81c-4.78-.14-9.68-.48-14.59-.81,4.1-.27,5.92-3.7,8.4-7.12-4.9,6.65-8.73,7.12-20.09,7,5.44-5,12.43-14.91,19.29-19.48A87.44,87.44,0,0,0,463,563.46c.54-3.23-7.53-6.92-3.36-11.43-4.1,3.36,1.48,6.25,2.42,11.76-7.13,3.77-15.86-.4-24.4,2.09,6.25-4.84,12-13.24,18.35-19.09-6.86,5.85-14.38,13.64-22.45,20.16-.33-3.69,2-9.21-.94-13.17,6.25,21.44-19.22,32.73-36.62,39,18.61-38.71,16.66-3.23,36.15-32.93-6.18,4.43-6.38,14.18-17.87,10.75,22.17-18.21,4.09-19,19.42-29.17-2.09,1.08-4.71,2-6.66,4.51.54-1.62-.53-3.9-1.07-6.25,2.55,11.82-3.83,24.46-16.33,30.31,4.23-4.1,6.65-18,4.37-27.83,1.34,9.82-1.08,22.52-9.41,30.51-.47.61-.54-.67-3.77,2.69-1.94-4.37-14.78-8.53-7.45-15.25-7.2,5.24,2.55,10.28,6.65,16.87l.13-.14c0,.07-.06.2-.06.27s0-.07-.07-.13c-3.63,4.3-7.6,13.1-10.55,18.54a182.31,182.31,0,0,1-31.45,9.55c2.21-4.1,1.34-9.68,1.27-15.53,5.31-.33,12.84-4.9,16.47-10.48-3.3,4.1-9.81,8.47-16.27,9.27,4.31-8.8,14.39-15.92,24.94-18.61a58.86,58.86,0,0,0-7.4,1.34c3.84-3.22,7.53-6.38,12.3-10.28,5.18-1.55,13.24-4.84,19.76-6-5.11,0-9.34,2.55-16.73,3.56,3.69-2.69,7.32-7.86,12.63-9.61-6.25,1.82-12.16,8.34-18.88,12.5-2.56,1.75-5.72,4.1-9.21,6.59,1.68-4.24,7.26-8.2,8.13-14-1.88,5-13.17,18.88-18.82,21.57,2-3.43,6.39-7.66,7.2-12.9-2.49,7.86-10.69,14.38-16.81,21.17-2.62-6.25,2.22-15.19-1.41-22,2.22,4.83-1.27,12.23-.74,18.54-.13,4.64,2.76,19.83-4.77,26.21-17,3.09-34.2-1-51.41-.87a124.11,124.11,0,0,1,4.44-21.3c2.48-.07,9.47.2,14.78-.54,4.17,1.21,2.09,6.72,15.19,1.81-3.29-.8-7,5.24-13.37-2.08a29.86,29.86,0,0,0,8.6-3,58.21,58.21,0,0,0,13.1-1.15,58.26,58.26,0,0,1-11.56.27c4.17-4.16,9.55-3.16,15.26-3.83-2.08-.4-4.57-1.48-8.8-.33,3.62-2.49,7.19-6.66,10.08-10.42-3.36,3.63-7.46,8.06-13.38,11,.2-3.09-3.76-7.46-.4-11.29-3,2.89-.74,7.12-.4,11.76a52.94,52.94,0,0,1-7.6,3.43c2.82-3.63,1.62-4.84,0-6.86,1,1.48,1.41,3.56-1.07,7.19-4.71,1.48-14.38.94-19.36.61,5.58-20,44-31.72,61.9-39,13.44,1.88,27.62-4.64,41.53-8.6,5.78-1,11.15,4.7,17.74,5.51-7-2.15-13-9-22-6.72,6.38-9.48,25.07-2.15,41,5.24,1.68-.34,7.93,5.44,10.22,2.22-1.41,1.88-4.3-.41-7.06-1.82,2.29-.67,4.5-2.68,6.32-5.17-8.47,10.89-14.25-3.9-37-7.93,1.47-1.75,2.28-3.5,4.77-6.65,21.3-.34,26.14-14.86,46.37,4.3,1.34,4.37-.94,12.5,3.22,16.93-2.28-2.89-1.14-8.06-1.81-15.52,2.28,3,7.06,5.84,7.8,11.22-1.42,5-5.11,11.09-14.39,13,4.17-.54,11.83-2.75,15-10.55,3.16,7.06-8.2,7.33-10,15.73,1.75-4.24,1.75-4.24,10.62-9.75,3.23,10.69,10,8.33,19.76,10.35-11.22-4.37-17.07,3.29-18.95-20.16a19.09,19.09,0,0,0,5.85,2.49c3.49,3.89,8.73,5.1,14.24,6.18s11.16,2,15.46,5.31c-5.91-6.05-17.54-5-25.27-10.69,12.16,1.48,24.19-2.75,36.36-4.5-16.27.61-41.27,9.74-51.41-10.08,5.37,2,13.64,3.56,19.28-1.14-13.3,7.26-22.71-3.09-34.13-11.76,23.79-7.26,33.53,2.95,55.17,9.07,8.67,6,1.21,5.58,15.52,10-6.18-4.1-4.36,1.35-14.18-10.82,6.25-.6,11,3.5,18.69,4.24,2.55,2,3.15,2.28,7.72,4.77,1.68,7.59-4.43,4.57,4.51,15.32,4.7,10.28,5.64,5.85,17.6,8.13-14.71-4.23-7.79,4.57-20.49-15,.27-1.55.47-1.82.94-3.84,1.54,10.35,26.68,14,37.23,8.88-5.85,2.55-28.23,1.68-33.74-7.53-1.34-4,.27-6.72-6.92-10.55h0l-.4-.2c1.48-.14,3.83-.54,6.79-.94,10.55-3.43,18.21,9.74,31.38,4.7-7.8,2.28-16.6-4.1-24.26-7.33,13.1-10.61,26.07-3.76,39.25-6.51-3,.13-6.52-.54-10.08-.74-25.88-6-24.53,8.8-49.94,5.91,42.61-6.05,47.79-20.5,67.68-32.12-11.56,5.17-22.31,16-36,20.23-3.7-16.07-7.06-8.81,16.33-31.39-3.57,3.23-9.55,7.73-14.86,12.17,2.09-2.69,6.19-5.58,7.93-10-1.81,3.9-7.86,7.06-9.87,11.49-1.55,1.35-4.1,3.09-4.64,6.46-4.17-3.5-2.69-6.46-.4-11.7-2.22,3-6.19,6.39.4,13.38,9.21,17.2-17.74,13.64-29.44,15.79,7.06-5.18,10.55-17.41,20.3-21-17.21,5.85-14.52,28.36-41.4,18.62,6.65-2.42,1.75-9.41,9.54-13.51-6.51,1.07-3.15,9.34-11.08,13-6-2.29-12-5.85-19-8.67,6.39-3.56,14.92-5.44,22-9.88-7.33,3.43-15.93,5.58-25,8.74-6.18-2.09-14.78-2.83-23-1.55-.14-1.07,14.85-13.24,21.77-11,1.41.2,2.35,1.14,4.17-.47-2.69,1.41-6.86-4.17-22.79,5.91,1.89-6.65,7.87-11.35,15.26-13.91,6-2.69,13.84.94,21.24-2-4,1.47-10,.26-15.39-.47,6-2.69,13-5.18,19.75-5.65-8.06-.13-17.47,3.09-26.47,6.25,2-5.58,9-7.73,13.77-12.3-2.15,1.75-5.51,3-8.33,4.77,1.08-2.42,1.41-1.61,2.82-6.85,1.88.47,4,1.14,6.45.47-1.68.27-3.22.2-6.25-.94a5.54,5.54,0,0,1,2.22-2,5.25,5.25,0,0,0-2.48,1.95c-5.52-3.36-13.65-3.36-20.91-1.61,2.76-.88,6.73-3.7,11.83-4,5,1.88,12.44-.6,18.89,1.82.27,5.84,10.21,3.36,16.39,5-9-3-7.59,1.81-18.75-7.39,5.58-.41,11.56,1.68,18.35.74-3.49.2-8.2-1.15-12.83-1.68,2.15-.74,7.66-1.08,14.58-3.77-11.69,3.43-23.79,2-37.64,2.42a51.52,51.52,0,0,1,15.6-5.17c.53-.14,1.21-.2,1.88-.34H497c2-.33,4.36-.67,6.78-.87,2.83,2.08,9.35,5.58,14.39,3.16a7.3,7.3,0,0,1-1.28.87c4-.07,10.08.2,15,2.55-6.59-4.3-18.08-2.55-25.61-6.85,10.22-.87,20-1.14,29.64,1a71.89,71.89,0,0,0-15.19-2.82c6.32.33,6.52-7.67,13-10.56-8.4,2.49-1.34,9.61-22.51,10.08H508c3.76-2.35,9.74-2.95,11.76-10.95-5.58,15.19-31.18,8.67-44.49,16.94a24.82,24.82,0,0,1,3.29-5,101.73,101.73,0,0,0,17.54-3.69,128.45,128.45,0,0,1-16.33,2.42c3.36-3.3,9.95-4.37,14.85-6.66-4.5,1.95-10.34,1.62-15.65,5.65.47-1.48.4,0,1.68-4.17,13.57-2.69,28.76-5.78,42.13-11.89h0c1.75-.07,3.56-.27,5.51-.54,8.34-.61,11.09,4.17,15.26,9a.06.06,0,0,0-.07-.06c.14.13.27.2.4.33-.06-.06-.06,0-.13-.06a24.84,24.84,0,0,0,14.52,8.8c-3.77-1-8.27-2.55-11.09-7.19,2.75,1.07,3.63.94,8.94.54-.68-1.15-8.54,3.89-15.66-8.74,5.84,2.69,14,3.83,20.76,7.32-.6.95-2.82,2.36-4.23,3.84,1.34-1.35,1.75-.81,4.77-3.7a15.35,15.35,0,0,0,3,.13h0a15.39,15.39,0,0,1-2.83-.33c.41,0,.14-1.41,3.83-3.9-.4.47.14.34-1,4.17h.13c.54-1.21,1.08-2.76,2.08-5h0c.2-.54.68.26,2.09-3,.87,1.61,1.74,5.38,6.11,4.57,3.83,1.28,4.24,6.92,9.21,7.66-4.91-1.21-2.49-3.42-7.86-7.73,2.35-.47,4.43.74,10.41,3-6.52-5.85-17.47.94-17.54-14.52,9.68,2.56,19.49,8.67,30.92,7.93-9.28.14-19.43-6.11-28.57-9.61,11.09,1.48,21.38,1.88,34,4.24,10.48,2.82,5.91,5,15.05,1.81-7.52,1.28-15.12-4.23-23.38-5.38a114.53,114.53,0,0,0,16.26-5.44c-9.41,3-21.37,6.52-32.8,3.16,13.78-1.75,17.14-.13,25.41-11.56-10.82,13.37-33.07,9.48-49.06,8.27A107.23,107.23,0,0,0,568,406.07a115.23,115.23,0,0,0,23.93-9.68c3.62-3,3.69-7.26,12.56-4.77-10.41-4-6.31,3.09-23.85,7.86,1.47-1.21,1.61-1.21,5.78-7.12,14.11-5.78,30.84.47,45.36-8.14-8.74,4.37-19.22,3.36-30.24,3.16,6.85-3.69,14-8.73,22.85-10.48-11.56,1.48-20.1,8.94-38.38,11.89l.61-.2a2,2,0,0,1-.54.14h0c-.14.06-.2.06-.27.13a.21.21,0,0,0-.13.07c-.07,0-.14.07-.21.07s-.26.06-.33.13h0c-.07,0-.07,0-.14.07s-.06,0-.13.06-.07.07-.14.07-.06.07-.13.07a3.65,3.65,0,0,0-.6.27c-.07,0-.07.06-.14.06h-.2c16.26-11.42,33.67-26,55.31-26.61,0,0-.4-.06-1.21-.13-5.78-.27-12.5,1.61-19.29,3.43,3-.95,5.58-3.77,8.67-6-3.63,2.29-8,4.57-12.77,7.06C603.69,370.58,593.61,378,583.53,385c8.6-19.82,28.89-15.93,27.48-23-.74,4.77-19,6.31-22.31,11.69,2.35-8.27.34-18.28,17.74-18.41-20,.13-13.3,4.9-23.12,23.79,1.08-3-.06-6.86-3-10.29C586.08,360.7,592.8,350,603,348c-5.78-.47-18.14,9.88-23.18,17.81a7.94,7.94,0,0,1,1.07-3.43c-.4.54-1,1.15-1.47,3.83-2.22,2.83-6,5.45-9.48,8.07,7.19-23.93,10.22-47.45,35.35-54.5-18.95,3.69-26.82,17.4-33.54,34.07-1.14-7.66.21-19.69-.6-28.36-1.61,15.72.74,33.47-7,48.65-2.22-7.32-.6-15.65-1.81-24.32-1.08,15,3.49,32.39-10.08,44.69-2.36-9.41,3.22-15,3.83-23.93-.94,5.38-5.92,6.39-6.72,26.95A73.53,73.53,0,0,1,534.2,409a20.31,20.31,0,0,0,2.08-10.22c8.27-10.35.14-29,7.66-40.59-6.58,5.24-3.29,28.9-8.33,36-4.71-15.52-4.57-35.08,7.12-48.45-13.64,14.31-14.45,32.12-10.68,51.21a8.36,8.36,0,0,1-1-2.22c-3-14-9.68-9-7.39-32.33-1,4.77-2.56,10-1.82,15.46-4.57-5.78-9.14-14.92-10.48-22.85.6,10.42,7.26,21.77,13.57,31.18a24.64,24.64,0,0,0-8.33-4.37,6.9,6.9,0,0,1,1.48-1.94c-.54.33-.54.13-1.68,1.88a31.85,31.85,0,0,1-4.77-1.08,60.46,60.46,0,0,0,5.78-5.91,65.1,65.1,0,0,1-6.46,5.71,11,11,0,0,1-1.81-.74c2.22-9.81-.67-21.1,4-31.38a52.12,52.12,0,0,0-4.77,23.38c-3.83-7-6.52-16.86-10.89-24.39,3.63,8.33,6.59,18.88,10.15,28.7-.13.6-.2.94-.67,2.55-3.23-1.95-7-5.91-9.48-9.48,2.09,3.23,4.64,7.26,9.14,10.49a71.14,71.14,0,0,1-2.62,6.85c-.06-2.22-.94-4-1.88-6.25,1.48,5.85.47,11.83-3.56,18.08a22.14,22.14,0,0,0-6.32-16.13h0c9.68,11,3.9,30.44-6.18,40.79-7.46.88-15.19,1.89-23.66,3.7a32.17,32.17,0,0,0,3.83-11.76c5.18-8.94,18.55-9.81,24.4-19.42-4.84,7.86-17.07,7.93-24.06,15.79,0-.54,0-.13.07-1.28a152.43,152.43,0,0,0,8.87-14.45,119.47,119.47,0,0,1,14-8.87c-3.56,1.75-9.08,3.83-13,7.06,2.22-5.31,10.82-8.67,15.79-11.49h0c-16.87,6.52-14.45,7.52-25.67,23.32-7-38,8-28,20.43-49.26-4.7,7-14,11.69-20.5,18.34a58.9,58.9,0,0,0,3.77-19.49c0,6.32-3.83,14.25-5.38,21.38a18.41,18.41,0,0,0-2.76,5.44c-1.27-6.18-5.91-13.11-6.85-20.16.34,6.65,5.17,16.46,6,24.12-.81,6.59,1,13.31.47,21-8.26-3.69-12.23-14.58-15.86-23.05,2,5.58,3,13.11,7.13,18.62-1.62-.61-16.6,1.68-16.94-3.23-2.29,3.9,16.8,4.91,18.08,4.37,2.08,1.81,5.11,3.76,7.26,6.72a28.76,28.76,0,0,1-9.28,19.15c-23.79,6.19-43.28,25-55.64,46.51a45,45,0,0,0-3-14.85c4.84-6.12,7.8-14.25,9.41-23.32,7.26-8.74,18.75-12,29.77-16.54-5.31,1.75-11.83,2.62-17,4.37,5-4.84,10.89-7.59,14-13.77-6.59,7.93-17.27,14.31-26.14,22.17.26-1.81.47-3.69.6-5.71,9.27-21.3,13.78-25.4,17.68-26.55s7.32.74,14.24-8.46c-13.24,16.26-16.13-6.19-31.79,28.36-7.12-37.23,12.3-30.18,22.12-48-4.57,6.12-13.71,9.41-19.49,15.93,3-4.84,9.61-10.62,9.2-18.28-.06,8.6-13.1,17.54-16.46,29.3-2.49-5.51-6.86-12.36-3-19.62-4.43,6.58-.33,14.78,2.29,22.92a44.29,44.29,0,0,0,.33,9.74.47.47,0,0,0-.26.07,43.85,43.85,0,0,0-9-10.35c.61-3.63.87-8.74,3.63-12.17-2,2-3.83,7.19-4.5,11.5-1.55-1.35-4.44-2.56-5.45-5.92.61,2.29,2.15,4.17,5.31,6.65-.87,4-2.75,9.28-8.06,10.62a41.64,41.64,0,0,1-1-8.46,46.86,46.86,0,0,0,.4,8.66,44.22,44.22,0,0,0-6.65,3.16c.07-4.77,1.14-12,1.14-18.68-.06,5.11-2.62,12.63-2.15,19.29a16.23,16.23,0,0,0-5,5.37c-7.26-13.37-9.81-31.78,1.61-45.16,16.27.88,34.48-5.64,49.6-14.65,14.11-1.34,30.31-4.16,45.16-6-12.57,1-27.08,1.35-40.86,2.76a41.33,41.33,0,0,0,4.3-4.5c1.08-.74,1.28-.94,3.7-2.49,15.32-.34,31.18,2.35,44.62-8.47-10.55,8.4-26.08,5.85-39.25,5.85,14.38-5.11,32.06-9.54,42.68-22.85a59,59,0,0,1-26.48,14.72c2.75-2.29,7.26-8.94,12.3-10.15-4.64.94-10.22,6.25-14.12,10.69-5.3,1.54-11.35,2.55-17.4,4.83,7.79-17.13,24.39-14.58,36.09-26-6.12,5.44-19.49,8.2-26.55,11.76,7.06-10.49,19.56-18.95,31.79-24.26-4.64.27-16.67,8.06-24.66,12.63a39.72,39.72,0,0,0,6.92-18.14c-.94,7.52-7,16.33-12.17,22.84l-.33.34c1.95-3.83,2.55-9.47,3.56-14.85,18.61-21.64,16.46-10.69,28.22-17.81-4.09,1.61-9.54,1.75-13.91,2.62,6.59-6.18,12.84-14.92,17.41-23-5.65,8.73-13.51,17.07-22.51,24.73,2.62-9,5.91-8.4,4.57-19.36.13,7-4.78,14.05-6.25,21l.06-.07v-.13h0a.07.07,0,0,1,.07-.07c0-.07,0-.07.07-.13V300h0l.06-.07h0l.21-.2c.06-.07.06-.07.13-.07l.14-.13h0c.13-.07.2-.2.33-.27l.07-.07h0l.07-.06.2-.2-.2.2-.14.13-.07.07-.06.07-.14.13-.33.34-.47.47-.27.27a80.71,80.71,0,0,1-7.6,7.12c2-8.74-3.63-20.1,1.68-29.17a6.15,6.15,0,0,1-.6.54c.07-.2.47-1.08,1.21-2.62-2.49,4.57-9,9.34-12.1,18.28-.27-17.54,3.7-33.74,18.55-46.3-6.65,5.24-14.11,12.36-17.34,21.7-1.54-8.8-6.72-19-12.23-26.21,6.38,10.35,12.9,24.87,8.67,38.58-3.23-9.68-11.9-18.82-17.94-27.83,8.67,15,18.28,23.59,16.46,44.63-3.43-11.36-20.9-8.94-25.13-20.43,1.88,11.76,19.82,7.12,25.27,27-.27,13-12.1,21.17-22.85,27.83-.41-18.82-9.55-18.08,2.28-34.34-2.35,2.21-5,4.63-6.85,7.52-.41-5.78-.41-18.68-.68-23.38-.13,3.62-.74,12.76-1,18.81-1.42-2.42-1-7.46-3.36-10.48,3.42,8.06,2.75,20.5,5.3,30.31a39.8,39.8,0,0,0-3.56-4c-.27-8.54-9.14-22.32-7-38.38-2.42,11,1.15,23.79,4.17,35.62-3.36-3.16-8.33-7.73-11.83-12.16.27-.27,0,0,1.14-1.28-.06.07-.26.2-1.2,1.14-9.82-13.77-8.07-21.84,6.18-31.38-3.7,2.15-8.2,4.57-11.23,8a41.42,41.42,0,0,1,7.67-15.12c-5.92,6.39-12,17.14-10.42,27.89-4.7-3.69-11-10.95-13.44-17.67,3.09,11.09,13.91,18.95,18.95,30.85-.94,1.21-1.95,2.62-3,4.1-.33-.21-.6-.34-.94-.54.07-2.89-3.16-5.65-4.1-10.62-.13,2.49,2.56,6.32,3.36,10.15-5-3.9-9.27-1.21-12.36-11,.33,3.83-.94,5.58,13.1,13.44-.54.88-1,1.75-1.48,2.56a71.69,71.69,0,0,1-10.28-4.44,80.2,80.2,0,0,0,9.88,5.18,68.71,68.71,0,0,0-4.17,7.93c-4.36-11.43-14.92-20.5-18.54-32.53,2.28,11.36,12.63,22.31,16.33,34.74-5.85-4.23-9.14-12.76-15.33-18.14,10.89,18.95,24,19.09,12.1,43.95a30.63,30.63,0,0,1-4.23-7.26,21.65,21.65,0,0,0-.88-5.78c1.28-.13,3.77-.2,5.45-.27-1.35,0-2.49-.13-5.58-.13a102.75,102.75,0,0,0-5-14.92,106.22,106.22,0,0,1,3.76,15,35.28,35.28,0,0,0-8.33,1.41l-1.82-2.56c2.22-3.22,5.31-7.93,3-13,1.34,3.36,0,7.93-3.63,12-.68-2.28-1.15-6.45-2.22-11.42a113.91,113.91,0,0,0,1.54,12.16c-2.15,2.49-5.64,4.91-9.27,7.6,3.23-3.36,6.79-9.68,7.39-15.19-.8,6.32-6.65,11.89-10.48,17.81h0a24.53,24.53,0,0,0-4.5,5.78c-1-7.26-1-19.36,5.71-25.47-9.34,7-6.79,21.17-8.33,32.12-8.74-21.84-1.55-43.68,9.27-60.62-3.63,5.38-8.07,11.7-11.43,19.42,3.1-12.23,0-28.56-5.1-39.91,8.4,24.32,2.35,34.54-.81,54.16C323.58,325,320,316,317.6,309.16c1.34-2.49,3.76-5.51,5.31-9.75-.94,2.29-3.29,5.58-5.65,8.74-.2-.67-.4-1.08-.4-1.14s.13.53.34,1.27a20.34,20.34,0,0,0-3.83,8.61c-1.62-4.37-5.85-10-7.87-15.33,2.69,7.4,8.67,17,7.53,25.94-7.39-9.74-17.74-18.21-18.68-31.45-.34,10.82,7.86,21.44,14.92,30.92-19.49-6.59-11.29-6.19-20-15.33,5,6.05.06,10.15,21.77,18.89,0-.07.07-.14.07-.2a.25.25,0,0,1-.07.2c4,4.3,5.11,10.82,6.59,17.61-1.21-1.35-3.36-3.57-5.65-5.92-.74-2.75-2.49-7-.94-11.69h0c-.81,2.55-1.75,6.79-.13,10.62-5.45-5-11.23-13-16.13-18.82,5.1,7.53,12.36,17.94,19.15,25.4-15.59.27-11-2.75-18.08-5.84,3,2.42,5,7.59,19.63,7.72,7.86,9.95,11.89,22.85,21.57,32.67a32.07,32.07,0,0,1-6-.68c-2.76-2.82-6.86-6.31-8.47-11.35.74,3.49,3.36,7.19,6.52,10.75a34.19,34.19,0,0,1-7.19-3.63c-.74-1.68-3.7-3.76-6.52-5.91.07-.47.13-.74.13-.88a3,3,0,0,1-.2.81,6.12,6.12,0,0,1-1.48-1.82,14.79,14.79,0,0,0,1.68-3.49,13.92,13.92,0,0,1-1.81,3.16c-.74-1.28-.54-4.57-2.49-7.06,1.08,1.55.81,2.82,2,7.66-.27.41-.61.88-.88,1.35-1.47-.88-2.95-1.75-4.36-2.49.26-5.11,2.28-11.56,1.81-17.74.14,4.7-1.95,10.62-3.09,17-4-1.81-8.4-4.77-12.43-7.19,3.09,2.15,6.78,5.31,11.56,7.93-3.16.2-6.12-2.69-10.49-2.62,3.16.07,7,3.43,11.09,3.49-.2,1.08-.4,2.22-.67,3.43-3.09-.2-5,.4-9.88-3a12.68,12.68,0,0,0,9.68,4A130.63,130.63,0,0,1,301,390.07c-2.42-5.44-11.9-20-10.95-27.69-1.89,13.91,15.32,27.89,5.51,42.68-.47-1.82-5-6.05-4-11.49-1.27,1.88.68,7.12,3.63,12.83-2.55,6.12-3.29,15.12-1.81,22.31-4-3-8.4-6.25-13.31-10.21h0c.27-.94-4.5-3.29,1.61-10.08a3.17,3.17,0,0,0,2.56-1.28c.74-.87,1.68-2.28,4-5-1.41.2-1,2.62-6,5.51,4.23-5,8.87-11.49.67-18.08,4.3,3.43,5.58,10.15-.13,15.26.33-3.16-4.1-4.64-5.85-7.73.74,2.82,6,4.1,5,8.6-.27.87-5.91,4-5.51,9.95l-2.62-2.22c-5-19.29-14.45-25.88-.47-42.88-4.57,4.71-10.28,9.68-8.8,17.81a78.31,78.31,0,0,1-3.1-21,16.21,16.21,0,0,0,6.46-11.22c-.68,3-2.29,7.59-6.39,10,.34-10.14,7.06-23,2.76-33.6,3.76,16.47-10.08,29.91-4.51,53.29-2.62-5-8.67-13.1-12.23-18,6.86,10.42,14.72,24.87,18.28,37.84-27-23.93-37.77-49.8-27-84.14-3.1,7.66-4.37,17.74-6.93,27.08-3.89-9.94-12.23-25.87-16.33-34,6.39,15,14.39,34.74,18.42,52.55a193.36,193.36,0,0,0-22.92-19.62,203.77,203.77,0,0,1,18.28,17.74c-6.25-2.42-9.68-2.82-17.14-8.06,5.92,6.25,17.75,7.32,23.32,15.32,2.62,7.73,5.11,15.86,10.89,23.32-7.53-4.3-13.91-13.71-19.89-20.1,20.63,30,16.46,14,39.65,42.81A80.84,80.84,0,0,1,254,416.82c-7.53-9-18.55-17.68-28.77-25.34,6.93,7.8,17.75,13.17,23.46,23.93-15.19-4.1-29.91-15.66-33.13-32.46-.27,6.31,4.5,13.51,8.53,19.28-8.67-6-14-17.87-20.56-25.87,7.32,12.37,14.92,27.89,29.23,36-8.47,3-18.75-1.68-26.28-7.26A60.78,60.78,0,0,0,220.83,414c-2.36.33-6.05,1.47-9.35,1.21,9.88,1.21,22.11-3.84,31.72,3-8.26.2-16.93,7.53-26.14,4.77,12.91,3.9,21.1-7.12,39.05-.4-8.34,5.18-10.28,6.59-20.9,4.37,8.06,3.22,15.52.87,23.72-3.76a52.63,52.63,0,0,0,13.31,1.27c5.1,5,12.56,10.75,18.28,16.67-1,.2-1.48.27-3.9.81-2.56-1.48-4-1.35-9.88-5,1.54,1,5.58,4,8.74,5.17-1.68.13-3.1.13-6,.34-4-.81-10.08-1.89-12.5-7.33.95,3.09,4.91,6.38,8.94,7.53-4.16.06-9.41-.07-13.51-3.23,4,3.56,10.76,4.57,17.68,4.37-2.29,2.69-7.66.27-11.9.74,4.24-.34,8.54,3.49,14-.74,2.76.27,6.66-.34,10.15-.67,4,5.11,7.06,11.83,10,18.81-1.21-.87-4.1-1-5.78-2.15,1.28,1.15,3.77,1.21,6.12,2.89a82.6,82.6,0,0,1,4.44,13.51c-3.57-.94-7.93-1.14-13.51-2.35a33.22,33.22,0,0,0-5.85-8.74c-.13-3.49-4.43-8.6-3.49-13.44-1.21,3.23,1.41,8,2.28,12.3C281,459.63,272.84,453,266.12,450c5,2.62,10.28,7.32,15.66,12-3.29-.74-8.13,0-12.57-1.82,3.23,1.82,9.55,1.95,14.05,3,2.62,2.08,5.37,5.91,7.39,9.61-7.26-2.56-16.8-4.84-25.07-7.87-.74-1.68-5.44-7.39-6.45-9.2,1.28,2.55,2.62,3.83,5.31,8.73-.87-.33-1.14-.47-3.83-1.61-1.68-7.46-11.29-13.71-12.77-22.71.27,7.05,8.07,14.85,10.69,21.7-11.83-5.64-18.82-17.07-28-26.27,6.85,7.93,13.17,19.75,23.12,26.68-9.48.06-18.42-5.65-28.23-8.54,28.56,14.72,19.22,5.44,41.06,15.52l.61,1.42c-10.22.87-23.93-5.38-32-10.82,7.33,5.71,20.5,13.44,31.38,13.37a.07.07,0,0,0,.07-.07l-.07.07,2,.2c6.52,9.81,13.58,21.64,3.16,32.46-5.58-3.83-4.5-10.95-4-18.08.2-3.69-4-10.21-1.15-14.58h0c-3.36,2.62,2,14.18-1.47,23.86-2.56-4-8.27-8.54-11.77-13.31,2.83,4.44,8.2,10,12,15.59a12.62,12.62,0,0,0,5.44,8.27c-2.22,4.43-1,12,2,16.87-4.24.53-6.52-.68-12.3-8.07-1.88-3.83-.74-8.4-1.75-13.24.27,3.3-1.28,7.46.27,11.16-2.28-3.29-4.77-7.93-8.47-11,4,3.83,6.45,10.82,10.89,16.6-2-.6-5-.8-9.41-2.35.07-.33.34-.74.94-2.82a25.69,25.69,0,0,1-1.14,2.75,8.81,8.81,0,0,1-1.61-.8,8.5,8.5,0,0,0,1.54.94,35.72,35.72,0,0,0-1.95,4.9c-7.19-9.81-1.74-18.54-2-30.44,0,4.44-1.75,10.48-2.89,16-1.15-6.79-1.41-18-9.48-21.44,7.33,3.83,7.19,14.78,7.73,23.18-1-1.54-6.32-8.33-7.73-9.88,1.08,1.35,7.19,10.49,7.93,12h0c.14,4.63,5.18,15.59,7.26,18.21-10.48-7-14.58-22.18-21.44-33.4.61-10.55-7.53-9.54-4.64-23.39-2,5.78-3.56,4.1,2.63,20.36-3-4.23-5.52-6.65-10.89-10.88-1.41-2.62-5.51-8.87-5.38-14-.4,2.82,1.48,8.94,3.43,12.43-8.67-6-15-13.91-22-22.11,5.85,8.13,12.23,17.41,21.24,24.73-9.07-1.54-16.6,8.2-26-2.55,8.2,11,14.18,3,28.43,4.84,5.85,4.9,10.82,13.64,13.84,22a62.18,62.18,0,0,0-9.67-3.16c-3.5-3.29-7.93-10.28-13.78-12.5,4.5,2,7.93,7.6,11.69,12.1-6.58-.67-14.24-4.37-21.5-7.6,3.69,2.42,7.79,3.9,13.17,6.66-9.21.27-21.77.13-30.44-2.22,14.44,5.17,36.15,2.75,50.67,10.42-9.81,3-19.89,6.85-30.18,1.88,8.67,5.31,22.45,3.36,32.06-.47,3.83,9.74,8.94,20.49,19.89,25.87-6,1.68-12.3-2.89-19.35-4,6.31,1.21,13.44,7.79,21.57,5.11,5.44,2.48,12.23,3.42,17.67,6.85-5.3,3.83-7.32,6.72-17,5.71-3-3.69-9.27-6-12.9-9.47,2.08,3.29,7.59,4.63,10.75,9.07a58.59,58.59,0,0,1-7-2.08c-5.64-5.31-12.36-14.72-20.29-19.63,4,3.23,9.67,10.82,16.33,18.28A73.43,73.43,0,0,0,231,546.52c-1.95-3.49-6-6.25-10.75-8.87-.61-4.7-10.62-12.23-4.37-17.67-4,3.22-3.5,4.1,2.55,16.66-10.35-4.77-20.9-11.49-25.47-23.52,5,13,9.55,17.21,23.46,25.4-4-.87-8.61,2.29-13.71,2-1.95-2.62-1.62-10.42-6.12-11.69,2.69,1,3.5,6.18,4.57,10.82a4,4,0,0,1-.8-1c0,.13.06.4.87,1.21a6.25,6.25,0,0,0,3.22,3.83c-2.62.74-4.63,3.16-8,5.38-2.83-2.29-15-7.53-22.31-10.35,6.25,3.29,13.23,6,20.43,11.29a37.92,37.92,0,0,1-15.06,2.82,37.65,37.65,0,0,0,16.2-2c1.88,1.28,4.5,3.23,7.46,4-2.09,8.8-35.22-3.23-39.79-6.45,7.4,5.71,24.6,10.35,34.81,13.37-8.13,8.06-16.26,10.15-28,12.9,11.76-1.48,26.08-4.9,34.34-16.33a5.39,5.39,0,0,0-.54.54c.47-.6.95-1.14,1.28-1.55-1.88,12-16.33,18.62-28.9,23.79,12.5-4,30.65-9.81,32.93-27.62,5.58-6,20.5-2.21,28.63.88-3.09,1.88-7.86,6.52-12.43,9.47a47.87,47.87,0,0,0-7.26-5.71,58.21,58.21,0,0,1,6.65,6.12c-5.24,3.16-13.17,4.5-19,8.6,5.51-3.43,13-3.9,20.09-7.33a30.72,30.72,0,0,0,7.93,7c-5.51,5.45-14.18,8.87-20.63,14.52,4.17-3,12.5-5.78,22.58-13.24,4.23,2.82,8.13,6.12,14.18,8.53-8.33.27-19.15,6.12-28,.27,9.27,7.93,24-1.34,34.74,3.16-3,1.88-10.22,4.84-15.39,4.3,5.38.67,9.48-.4,16.87-3.42a35.56,35.56,0,0,1,8.94,7.52c-3.77,16.67-4.24,35.15,3,51.48.47,8.47,4.37,20,7.86,28.36-113.3,57-70.9,54.91-99,67.14H180c-8.88,4.57-16.81,7.79-21.64,12.43-10.82,10.35-15.06,11.22-16.33,10.69v58.73H850.59V803.78A21,21,0,0,1,844.28,802.37ZM379.83,624.75a.86.86,0,0,1,.27.2A1.1,1.1,0,0,1,379.83,624.75Zm5-3c.94,0,1.88-.06,2.82-.06-1.74.74-3.42,1-6.31,2a11.53,11.53,0,0,0-2.63-1.54A57.8,57.8,0,0,1,384.87,621.72Zm46.3-47.44a59.23,59.23,0,0,1,4.17-5.72h0c7.39-3.49,18.28.07,26.61-4.5a5,5,0,0,1-.06.67,36.92,36.92,0,0,1-4.71,3.83c-9.74.48-19.42,5.11-29,10.09C429.09,577.37,430.1,575.89,431.17,574.28Zm42.88-52c-.27-.13-.6-.2-.87-.33s-.34-.41-.47-.61A13.45,13.45,0,0,1,474.05,522.26ZM583.79,393.77c.34-.2.68-.34,2-.94-2.89,3.76-7.26,8.4-13.24,9.47,1.68-1.54,4-3.69,6.39-6.11l.2-.21h0c.07,0,.07,0,.07-.06h.27c.06,0,.06-.07.13-.07C580.64,395.31,580.7,395.38,583.79,393.77Zm-4-24.2c2.82,4.57,3.63,5.78.94,13.31h0c-3.9,4.77-5.37,10.69-11.56,14.45a3.52,3.52,0,0,1-.6.47l-.14.13a1.35,1.35,0,0,1-.33.21c-.47.33-1.08.8-2.22,1.68h0a95.9,95.9,0,0,1-18.14,10.55C570.55,388.66,559,386.71,579.76,369.57ZM563.7,418.36c.74.27,1.41.68,3.83,1.62a21,21,0,0,0,.94,6.25c-1.41,4-3.49,3.22-7.19,9-5.85-3.63-14.18-5.64-20.9-9.2,7.59,3.42,14.65-3.3,22.92-1-6.59-4-6.32,3.69-26.88-1.55C544.41,420,553.42,417,563.7,418.36Zm-55-37.09c.27.2,0,0,.94.47L508.19,383C508.32,382.41,508.53,381.8,508.66,381.27Zm-4.1,12.16c.74-1.95,2-5.17,3-8.4.68-.74,1.28-1.41,2.83-2.89a28.55,28.55,0,0,0,5.17,1.61c-1.14,3.77-2.89,8.61-7.26,11.7,2.29-2.42,3.63-6.92,4.44-11a28.06,28.06,0,0,1-10.82,16.06C502.68,398.2,503.62,395.85,504.56,393.43Zm7.93-.6c.94.47,2.15-3.36,8.13-4.44-1.88.14-5.71,1.28-7.73,3.9,1.35-2,2.29-5.18,3-8.47,3.76,1.08,7.19,4.3,10.68,7.26-.2,5.44,7.6,11.15,2.76,16.87-6.32,10.82-24.19,11.62-35,14.18C502.88,403,495.89,408.69,512.49,392.83ZM384.87,297.06a12,12,0,0,1,.67,1.34A12,12,0,0,1,384.87,297.06Zm54.23,7.33c-1.68-8.2,2.62-17.68,9.21-24.53-4.17,8.6-.07,20-3.56,30.31-1.95,1.41-4,2.82-6.59,4.5A30,30,0,0,0,439.1,304.39Zm-2.89,12.16h0a.21.21,0,0,1,.07-.13h0c0-.07.07-.07.07-.14v-.07c0-.06.07-.13.07-.2a.26.26,0,0,1,.06-.13h0a1.61,1.61,0,0,1,.27-.41c.07-.06.07-.13.14-.13a1.23,1.23,0,0,1,.26-.34c.07-.06.07-.13.14-.13h0a2,2,0,0,1,.4-.34,6.34,6.34,0,0,0-1.21,1.75c0,.07-.06.07-.06.14s-.07.13-.07.2c0-.14.07-.2-.14-.07Zm-25.67,27.76c8.27-6.25,18.21-12.37,24.33-22.25.13-.2.2-.34.27-.47v-.07h0c0-.06.07-.06.07-.13s0-.07.06-.07.07-.07.07-.13.07-.2.2-.27h0c.07-.07.07-.14.14-.2s.06-.14.13-.21c0,.21,0,.14-.07,1.08,2.22-1.41,4-2.69,6.72-4.7l.07-.07c.2-.14.34-.27.54-.4s.33-.27.47-.41c.47-.4,1-.8,1.54-1.21.68-.54,1.42-1.14,2.22-1.81-1.27,5.11-2.95,12.3-6.52,18.34-3.36,4-7.12,9.08-10.88,13.85,1.14-7.6,4.63-15,5.84-23.52-.2.13-.47.27-.67.4-4.37,11.63-6.45,27.69-18.14,35.89a46.67,46.67,0,0,1-5.45,2.89,16.73,16.73,0,0,0-7.79,3A109.17,109.17,0,0,1,377,370.11C387,360.77,399,352.91,410.54,344.31Zm-23.92-38.38a110.74,110.74,0,0,0,8.13,9.81c-2.82-1.41-6.52-3.36-10.62-5.64C384.94,308.62,385.81,307.14,386.62,305.93Zm-3.36,5.85c2.15,1.41,4.3,2.82,6.31,4a63.4,63.4,0,0,1-7.52-1.61C382.45,313.39,382.85,312.52,383.26,311.78Zm-5.18,11c.61-1.61,1.95-4.64,3.56-7.8a56.75,56.75,0,0,0,11.56,3h0c.41.27.81.47,1.21.74-2.48,5.51-8.93,11.63-14.71,15.52a33.35,33.35,0,0,0-2.36-9.54C377.54,324.14,377.81,323.47,378.08,322.8Zm-2.95,31.25c.47-6.59,5-8.74,8-15.86a25.59,25.59,0,0,1-5.78,7.73c.61-1.75,2.36-5.85,2.36-9.54,4.83-3.7,12.36-10.62,14.85-17.61,29.7,16.66-8.07,28-20.37,38.57C374.52,356.27,374.79,355.19,375.13,354.05ZM324,353.38c-3.16-6.92-4.16-15.93-9.27-23.19.34-6-2-13.51,2.49-20.83,5.78,15.05,7.39,32.46,9.94,49.19A39.17,39.17,0,0,1,324,353.38Zm-59.54,40.05a5.26,5.26,0,0,0-.07-.94A1.52,1.52,0,0,1,264.44,393.43Zm2.62,106.86a3.81,3.81,0,0,1,.27.53A3.81,3.81,0,0,0,267.06,500.29ZM209.2,548c-.27.2-1.82.87-4.91,4.7a22.65,22.65,0,0,1-7-2.89c3.9-2.08,6.72-7,12.5-2.15Zm3.83-1.75-1,.34a14.27,14.27,0,0,1-2.48-1.61c1.41.2,3,.53,4.9.94C214,546.05,213.5,546.12,213,546.25Zm12.77-.67a52.12,52.12,0,0,0-6.52-.27c-3.63-3-12-.2-16.94-4.7,5.72,1.27,12-6.32,23.66,5Zm92,158A70.69,70.69,0,0,0,329.23,709c-2.83.47-5.38.87-7.73,1.28-1.55-1.68-3-3.43-4.51-5.11C317.2,704.85,317.06,705.26,317.8,703.58Zm33-217.21c4.3,13.65,17.2,8.94,6.45,31.25-.74.27-2.42,1-4.57,1.68a109.34,109.34,0,0,1-19.22-15.52A17.47,17.47,0,0,0,335.34,490c6.72-2.15,12.43-9.27,21.17-9.94,2.82,5.17,9.14,10.75,6.32,22.38-1.08-7.13-11.43-9.41-12-17.41A3.71,3.71,0,0,0,350.8,486.37Zm6.45-6.38a36.07,36.07,0,0,1,3.63-.2,30.83,30.83,0,0,1,2.28,8.6C361.62,486.24,362.16,487.11,357.25,480Zm12,31.52A67.6,67.6,0,0,1,363,515a.23.23,0,0,0,.07-.2c1.75-5.11,1.88-13.17,5.85-18.14a34.45,34.45,0,0,0-3.43,4.1V500c2.82-3.56,5-8.27,9.34-12.63C373.24,495.11,372.5,503.58,369.28,511.51Zm49.33,8.67c-1.55,1.81-.88,1.54-3.7,4.3-3.9-.07-8.47-1.41-12.77,1.68a52.28,52.28,0,0,1,5.65-6.59c3.29-.27,6.45-.6,12.5-1.41C419.75,518.83,419.14,519.51,418.61,520.18Zm50.13-59c6.39-1.61,12.9-3.42,20.23,0-1.41,4.84-6.32,10.35-11.29,15.59-3.43,1.48-8,3.1-11,7.13,2.16-8.74,7.4-7,8.2-20.43,1,.27,2,1.14,3.57,2.42-3-4.17-9.55-3.09-15.53-3.36C464.78,462.11,466.72,461.64,468.74,461.17Zm-1.88-1.81Zm.07,0,1.41-.2A8.4,8.4,0,0,1,466.93,459.36Zm13.24-21.44a3.65,3.65,0,0,1-.48,1.21,13.74,13.74,0,0,0-1.74,3.63c-2.62,1.68-3.9,9.27-16.6,12.77-6.65,2.15-18.82,1.75-25.14,1C448.11,446.25,464.17,441.35,480.17,437.92ZM429.7,463.05c13.91,2.16,29.63.14,45.22.41-.33,6.31-4.57,11.36-8.87,17.54-.06-3.77-5-7.33-9.07-11.23,1.88,3.23,7.46,5,8.33,13a20.82,20.82,0,0,0-1.34,5.78h0c-5,13.24-23.39,12.57-36.69,14.92,8.4-8.13,16-8.4,28-11.56-6.05.94-13,.14-19.22,3.43,2.75-4.3,7.12-6.52,11.69-9.61a30.87,30.87,0,0,0-7.25,3.23c.2-5.38,1.54-13.85,8.87-15.6-10.35.94-7.26,14.32-14.18,20,.26-3.76,1.68-8-1.21-12.23,2,3.43,1.27,8.2-.07,13.24-.34.2-.54.4-4.23,4.1h-.07l-.07.07h0l-.07.06h0c-.06.07-.27.2-.8.67h-.07l-.07.07-.06.07-.07.07c-.07,0-.07.06-.14.06a.06.06,0,0,0-.06.07l-.07.07-.07.07a.21.21,0,0,1-.13.06h0a.07.07,0,0,0-.07.07h0a55.3,55.3,0,0,1-22.58,5.44C412,491.48,418.54,475.55,429.7,463.05ZM425.93,501c.27-.14.94-.47,1.82-.88C427.61,500.22,427.48,500.29,425.93,501Zm6.32-3.83Zm-37.37,24.12c.34-.4.68-.74,1-1.14,3,0,7.06-.13,11.29-.47-5.37,3.16-6.58,11.36-14,13.24,1.55-1.88,5.65-5.44,5.38-9.14-.47,2.89-4.77,8-7.73,9.74-.54.27-4.64.47-13.1,1.82A86.23,86.23,0,0,0,394.88,521.25ZM399,413.86c0,.2.07.34.07.54-.07-.2-.07-.07-.27-.47A.23.23,0,0,0,399,413.86Zm-12.63-1.21a16.71,16.71,0,0,0,3.16-8.26,48.31,48.31,0,0,1,7.26,9.67c-3,.2-7.6-.47-12,.2A11.64,11.64,0,0,0,386.35,412.65Zm-4.91,3.43c3.77-1.21,10.28-1.55,15.46-1.82,2.76,6,2,13.51.27,20.64-7.6-8.54-15.79-1.75-16.26-18.62A4.3,4.3,0,0,0,381.44,416.08Zm-1.27.6c-2.89,23.79,28.09,7.13,9.61,37.37-5.92-9.48-15-16.33-20.57-27C370.89,422.66,374.52,419.17,380.17,416.68ZM367,454.92l1.35,1.75c-6.32,1.55-10.82-2-13-8.67a27.1,27.1,0,0,0,3,7c-4.1-2.76-9.88-6-12.83-11,2.95,5.31,8.46,9.94,15,13.78-2.22.6-2.69,5.64-8.8,5.1,2.28.61,4.1,1.15,9.54-4.77-.07,0-.13-.07-.2-.07s.13.07.2.07l.14-.13V458h0c14.71-1.54,16.26,16.33,13.64,28.5-3.16,2.62-6.52,7.12-9.48,11.09-.06-5.45-.53-12-3.63-17.88,1.62,0,4.71.2,6.93.47a67.33,67.33,0,0,0-7.2-1c-1.34-2.89-4.36-6-5.1-9.74.27,2.55,2.15,5.58,4.16,9.68a41.93,41.93,0,0,0-4.23-.07c-1-1.34-4.5-2.42-5.24-5.11.2,1.48,1,1.95,4.5,5.11a25.64,25.64,0,0,0-12.7,4.43c5.24-8.26-.14-21.9,9.21-29.57-9,6-5.85,17.95-10.76,27.69.47-5.24,3.3-14.51-2.15-20.09,5,5.71.88,14.25.74,21.91a13.45,13.45,0,0,1-5.64,3.63c-4.77-9.21-7.53-21.17-10.89-32.53h0v-.27c0,.07.07.14.07.2.47-1.54,2-5.24,6.58-11.36h0c3.23-2.28,10.15-3.83,11.5-9.94-1,4-5.78,6.38-10.22,8,3.76-6.12,5.78-14.79,8.94-22.11-2.89,5.24-5.24,12.7-9.07,19,0-4.36,2.68-9.47,2.48-15.12a56.34,56.34,0,0,1-11.42,27.56c.06.13.06.27.13.47-.07-.14-.13-.2-.2-.34l.07-.07a55.47,55.47,0,0,1-1.75-20.49,162.48,162.48,0,0,1,12.77-14.72c-4.37,3.56-6.52,6.12-12.43,12,.2-8.27,8.13-14.18,10.75-22.51,5,.2,10.82,2.95,15.05,7C349.12,427.17,356.71,442.49,367,454.92Zm-45.83,18.62c.67.4,1.14.74,2.22,1.48.6,7,7.05,14.65,5.11,22.71-4-6.45-5.51-15.72-8-24.59A2.65,2.65,0,0,0,321.16,473.54Zm-1.41-3A96.2,96.2,0,0,0,314,456.87c1.48,1,2.89,3,6.92,6.65.4,2,1.07,5.38,1.75,8.47A29.83,29.83,0,0,0,319.75,470.51Zm14.45-71.64c.27.54-.2.07,1.28,2.16-3-.54-6.05-4.37-12.24-8.14,3.43-.27,7.53-.6,12.3-.94.07.07.07.07.07.14V392a22.89,22.89,0,0,1,10.75,1.41h.14l.53.21v.13h0a55.79,55.79,0,0,0-.8,14.18,41.8,41.8,0,0,0-8.34-5.71,13.75,13.75,0,0,1-3.22-3.56c-.4-1.62-.07-1.89.81-6.39A20,20,0,0,0,334.2,398.87Zm16.93-22c-.13,2.29.94,3.83-.87,7-1.68-1.88-3-3.29-5.44-6.18.94-3.77,5.84-7.13,7.32-12.23C352.61,367.69,350.66,373.87,351.13,376.83Zm-9.54,30.24c-.47-.33-.07.21-1.88-1.47C340.38,406.07,341,406.6,341.59,407.07Zm29-55.57a.71.71,0,0,0,.2.26c-.14.07-.2.07-.34.14-1.48,4.5-2.82,8.67-5,12.43-.34.27-1.08.94-1.95,1.75s-1.88,1.75-2.69,2.55h0a41.48,41.48,0,0,0-5.51,3.43c.67-5.24,4.57-10.21,6.92-16.33,2-1.14,4.3-2,8.27-3.83C370.42,351.83,370.49,351.7,370.56,351.5ZM366.05,346a8.8,8.8,0,0,0,.54-2.29,30.55,30.55,0,0,0,3.36,6.86c-1.41.6-4.5,1.54-6.85,2.55C363.84,351.16,364.57,349.48,366.05,346Zm-8.67-6.66a36.18,36.18,0,0,1,7.13-1.68c2.08,6.59-2.89,12.17-5.92,19.42.27-5,.61-11.35-1.95-17.47A3.68,3.68,0,0,1,357.38,339.33Zm-6.45.47a28.26,28.26,0,0,0,2.69-2.95c.27.53,0-.07,1.28,2.08-.88.33-1.75.54-5.11,2Zm-14.38,21.91c.47-4,1.68-10,5.58-13.91a53.08,53.08,0,0,1,13.3-7.73c2.09,7.46,1.75,18.62-2,25.81.13-3.77-1.95-11.9-4.3-15.8.87,2.36,3,7.46,3,11.83a3.76,3.76,0,0,0-2.42-1.74c7.13,2.95-3.56,11.62-6,16.06C341.05,372.53,336.42,368,336.55,361.71Zm-9.14,21.71a23.37,23.37,0,0,0,12,1.68c.81,1.21,1.15,1.68,2.69,3.83-6.38-.34-13.51,1.34-21,2.49-.61-.41-2-1.42-3.36-2.36.47.41,1,.88,2.95,2.49-3.09.2-8.67,2.55-11.76-1.21a19,19,0,0,0,4.77-6.18c3.57-.61,8.81,0,13.31-.61C327.07,383.49,327.21,383.49,327.41,383.42Zm-2.15-1c-3,.47-7,.27-11.36,1.14.47-1.48,1.28-3.22.74-8.53h.27c1.34,1,2.62,2,3.9,3A37.25,37.25,0,0,0,325.26,382.41Zm-10.42-10.22c.61.54.94.81,2.42,2.09-.8-.54-1.68-1.08-2.48-1.61C314.78,372.53,314.84,372.4,314.84,372.19Zm-1.68-2.08c.41.47-.33,0,1.62,2a4,4,0,0,0-.14.47c-.54-.34.07,0-2.08-1.28A3.35,3.35,0,0,1,313.16,370.11Zm-1.34,3.09c0-.13.07-.2.07-.33l.87.6c-.27,0-.6-.07-1.07-.07C311.75,373.34,311.75,373.27,311.82,373.2Zm-4.23-3.29q1.91,1.21,3.83,2.62c-.07.14-.07.2-.34.87-.81-.06-1.75-.13-3.9-.33C307.32,372,307.45,370.92,307.59,369.91Zm-.88,6.45c.14-.74.2-1.48.34-2.22,1.34.21.54.07,3.49.54-.54,1.35-1.68,3.29-4.63,6.65C306.17,379.65,306.51,378,306.71,376.36Zm-3.29,15.06c.4-1.55.81-3.1,1.21-4.64a28.24,28.24,0,0,1,1.48-3.16,6,6,0,0,0-.2-1.28c0,.14.13.47.26,1.15,1.15-2.49,3.3-3.43,5.11-8.67,1.14.06.67.13,3,.2-.14,2.69.33,5.1-1.61,8.8a14.14,14.14,0,0,1-5,.14,14.33,14.33,0,0,0,4.83.33,18.42,18.42,0,0,1-4.36,4.77,24.91,24.91,0,0,1-1.82-5.51c0,.07-.07.07-.07.14a23.46,23.46,0,0,0,1.48,5.71c-1,.74-1.68,1.07-4.43,3.29A3.22,3.22,0,0,1,303.42,391.42Zm1.88,50.2c-1.14-7.53,5.24-15.46,3.09-24.13,1.55,6.45-3.9,13.91-4.77,21.71-4.7-5-5.51-13-6.25-21.17a16.38,16.38,0,0,0,4.17-3.56c1.81-.61,1.68-1.89,5.84-4.3-.06-.07-1.34.4-5.1,3.36a23.27,23.27,0,0,0,2.42-4.37c.2-.34,2.55-1.82,3.56-3.56-.07.06-.41.8-3.23,2.82.27-.34-.2-2.35,3.29-5.65-2,1.41-1.74,1.28-5.51,8.54-.2-1.08-2.75-2.89-1.07-4.77-1.28,1.27-.4,2.48.81,5.24a18,18,0,0,1-5.11,4.7c-.47-5.58,4.5-11.69,4.57-19.35a.06.06,0,0,1-.07.06l-.07.07.07-.33h0V397h0v.2a30.46,30.46,0,0,1,6.45-6.31c2.56,3.76,9,2.95,14.11,2.22,2.89,1.47,7.87,7.86,14.59,10.88a24.06,24.06,0,0,0-5.11-.6,13.26,13.26,0,0,0,0-1.68,13.77,13.77,0,0,1-.13,1.68c-5.92,1.54-12.57,1.68-18.48-1.41a23.74,23.74,0,0,0,7.52,3.69v0c2.56.54,6.79-.4,10.55-.54-1.74,5.11-6.78,9.21-10.14,14.86.53-2.56,0-8-.21-12.1.27,11.36-4.5,23.59-3.63,35.95-3.09-3.69-8.53-8.33-8.6-14.65-.47,6.05,4.64,11.5,8.87,17.28.61,5.1,1.75,9.27,3,15.38-1.41-.87-2.29-2.48-6.92-5.64A158.81,158.81,0,0,0,305.3,441.62Zm-36,29.23c-.34,0-.74-.07-1.08-.07-.13-.27-.26-.47-.4-.74l1.95.81Zm6,9.95c-1.28-1.89-3.43-4.64-5.24-7.13a17.86,17.86,0,0,0,6.45-.27c5.17,1.82,9.54,3.77,14.92,5.72-6.38,2-3.29,17.13-12.7,22.78C280.91,495.31,279.7,487.32,275.26,480.8Zm1.21,24.86c12.9-3.36,7.26-18.41,15.46-26.34,4.77,1.54,10.55,1.61,16.06,4.23,1.21,6.45,2.55,14.05,5.85,20.57-8.14-4-12.44-6.59-12.77-18.89-.68,1.14.2,2.42.27,6.66h0c-1.21-2.29-6.12-5.18-9.21-7.33,3,2.82,8.13,4.91,9.74,10.89-3.16-2.09-9.2-2.62-13-6.32,3,3.43,8.8,4.91,13.5,7.66,2.15,5.44,8.61,7.93,13.78,11.43,3.7,5.91,11.16,12.83,17.61,16.66A122,122,0,0,0,297,542.69c-1.54,1.08-2.21,1.48-5,3.5a36.92,36.92,0,0,0-3.15-7.93c6.58-2.56-.54-5.18,15.86-8.94-3.83.6-9.41.47-12.17,4.16a15.48,15.48,0,0,0,1.28-5.57c1.07-.81,6.32-6.32,8.74-8.94-1.68,1.68-7.06,6.25-8.81,8-2-7.4-1.95-16.6,4.37-23.12a26.09,26.09,0,0,0-6.05,9.34c-.13-1.41-.87-4.24-1.48-6.92,1,5.64-.06,11.29,1.08,18.75-3.43-1.95-6-6.32-6.79-11.5.61,3.7,1,8.81,6.86,12.84,0,3.36-.74,6.52-4.57,9.21a36.33,36.33,0,0,0-4.64-6.45c.07.06.07.13.13.2a7.49,7.49,0,0,0-.47-.61c-.06-.06-.13-.13-.13-.2l-.07-.07C276.47,521.66,270.09,514,276.47,505.66ZM255.64,533c-1.55-2.89-3.3-5.18-5.92-9.55a30.74,30.74,0,0,1,1.62-5.64A65.16,65.16,0,0,0,261.55,521c2.76,3.5,4.91,6.46,12,6,5,6.86,10.15,15.66,12.5,24.06h0l-.27.27-.27.27C283.12,539.06,267.2,536.24,255.64,533Zm-20.77,38-.2.2a33.18,33.18,0,0,1-8.54-6.32c3.9-2.08,10.76-7.46,14.32-9.41a74.36,74.36,0,0,0,11.09,4q-3,1.8-6.25,3.83a16.84,16.84,0,0,1-.61-4.51,16.2,16.2,0,0,0,.34,4.71c-1.14.74-1,.6-4.71,2.95C238.7,567.56,237,569,234.87,570.92Zm12.64,7.19c-3.16-.94-6.66-3.43-10.62-5.71.94-.68,2.75-2.16,4.7-3.36a25.43,25.43,0,0,0,6.72,9.4A4.11,4.11,0,0,0,247.51,578.11Zm2.62,1c-1.89-2.63-6.46-5.51-8.4-10.22.94-.54,2.42-1.34,4.7-2.49,3.43,3.36,8,9.88,9.61,15.19C254.23,580.73,252.21,579.92,250.13,579.12Zm17.67,9.81a44.55,44.55,0,0,0-9.34-6.25A38.57,38.57,0,0,0,247,566.08c5.37-2.56,9.34-6,16.19-6.25-1.27,3.16-3.09,8.94-7.39,10.75,3.9-1.28,6.65-6.52,8.6-11a23.11,23.11,0,0,0,11.63-7.8c1,1.28,2.69,3.83,4.23,6.19h0C274.32,567.36,271,577.37,267.8,588.93Zm11,111.42h0a17.82,17.82,0,0,0,1.35-1.68,13,13,0,0,1-.47,1.41,90.88,90.88,0,0,1-5,12.3c-4,.47-7.87.94-11.56,1.48A104.15,104.15,0,0,0,278.82,700.35Zm-28.9,9.21a79.52,79.52,0,0,0-9.4,8A218.42,218.42,0,0,1,219,723.2a36.75,36.75,0,0,0,3.76-5.78C231.11,713.79,240.05,712.45,249.92,709.56Zm-30.24,9.14a26.6,26.6,0,0,1-2.75,5,105.24,105.24,0,0,0-14.25,4.17C208.33,723.6,214,719.71,219.68,718.7Zm71.51-7.53a83.46,83.46,0,0,1,5.91-7.73c.61,2.42,1.28,5,1.95,7.73Q295.42,711,291.19,711.17Z"
            transform="translate(0)" style="fill:#1DB954;opacity:0.8" />
    </g>
</svg>